<svg width="40" height="40" viewBox="0 0 40 40" fill="none" xmlns="http://www.w3.org/2000/svg">
<g clip-path="url(#clip0)">
<path d="M36.9184 25.1278C36.3682 25.1278 35.9222 25.5738 35.9222 26.124V34.9693C35.9203 36.6192 34.5836 37.9563 32.9336 37.9579H4.98104C3.33107 37.9563 1.99436 36.6192 1.99241 34.9693V9.00911C1.99436 7.35953 3.33107 6.02244 4.98104 6.02049H13.8263C14.3765 6.02049 14.8225 5.57453 14.8225 5.02428C14.8225 4.47442 14.3765 4.02808 13.8263 4.02808H4.98104C2.23135 4.03119 0.00311315 6.25942 0 9.00911V34.9697C0.00311315 37.7193 2.23135 39.9476 4.98104 39.9507H32.9336C35.6833 39.9476 37.9115 37.7193 37.9146 34.9697V26.124C37.9146 25.5738 37.4687 25.1278 36.9184 25.1278Z" fill="#F89D16"/>
<path d="M37.5201 1.46468C35.7693 -0.286078 32.9309 -0.286078 31.1801 1.46468L13.4072 19.2376C13.2854 19.3594 13.1974 19.5104 13.1515 19.6762L10.8143 28.114C10.7182 28.4599 10.8159 28.8304 11.0696 29.0845C11.3237 29.3382 11.6942 29.4359 12.0401 29.3402L20.4779 27.0026C20.6437 26.9567 20.7947 26.8687 20.9165 26.7469L38.6891 8.97359C40.4371 7.22167 40.4371 4.38559 38.6891 2.63367L37.5201 1.46468ZM15.5778 19.8852L30.1236 5.33899L34.8147 10.0301L20.2685 24.5763L15.5778 19.8852ZM14.6408 21.7655L18.3886 25.5137L13.2044 26.9501L14.6408 21.7655ZM37.2804 7.56489L36.2238 8.62142L31.5323 3.9299L32.5892 2.87338C33.5617 1.90091 35.1385 1.90091 36.111 2.87338L37.2804 4.04236C38.2513 5.016 38.2513 6.59164 37.2804 7.56489Z" fill="#F89D16"/>
</g>
<defs>
<clipPath id="clip0">
<rect width="40" height="40" fill="white"/>
</clipPath>
</defs>
</svg>
