<svg width="40" height="40" viewBox="0 0 40 40" fill="none" xmlns="http://www.w3.org/2000/svg">
<path d="M33.3333 7.06267V3.33333C33.331 1.49333 31.84 0.00233333 30 0H3.33333C1.49333 0.00233333 0.00233333 1.49333 0 3.33333V18C0.00516668 19.7025 1.29567 21.1263 2.98933 21.299L5.49533 27.8042C6.15733 29.5218 8.08633 30.3775 9.80417 29.7163L25.4533 23.688C24.372 26.5125 24.6797 29.681 26.2837 32.2448L26.6667 32.8573V39.3333C26.6667 39.7017 26.965 40 27.3333 40H39.3333C39.7017 40 40 39.7017 40 39.3333V17.3275C39.9937 15.022 39.0758 12.813 37.4458 11.1825L33.3333 7.06267ZM33.3333 11.0497L35.3567 16.302C35.7532 17.333 35.2393 18.4898 34.2085 18.8867L33.052 19.3333C33.2367 18.913 33.3323 18.4587 33.3333 18V11.0497ZM1.33333 18V3.33333C1.33333 2.229 2.229 1.33333 3.33333 1.33333H30C31.1043 1.33333 32 2.229 32 3.33333V7.57067H31.9942L32 7.58583V18C31.9948 18.1163 31.9797 18.2317 31.9547 18.3453L25.848 12.238C24.4753 10.897 22.287 10.8867 20.902 12.2137C19.5167 13.5415 19.4335 15.7282 20.7147 17.1565L23.318 20H3.33333C2.229 20 1.33333 19.1043 1.33333 18ZM9.874 21.3333L5.13333 23.1585L4.432 21.3333H9.874ZM9.32467 28.4718C8.294 28.8692 7.1365 28.3553 6.73933 27.3247L5.61467 24.4L13.5727 21.3333V21.3293H24.54L25.4065 22.274L9.32467 28.4718ZM38.6667 38.6667H28V33.3333H38.6667V38.6667ZM38.6667 32H27.7033L27.4142 31.538C25.7887 28.9403 25.724 25.6593 27.2453 23C27.3893 22.7483 27.354 22.4323 27.158 22.2187L21.6948 16.2587C20.8802 15.367 20.926 13.9885 21.7982 13.1533C22.6707 12.318 24.0498 12.3317 24.9052 13.1837L35.5287 23.8047L36.4713 22.862L34.0047 20.3953L34.6887 20.1287C36.405 19.4665 37.2603 17.5392 36.6 15.8218L34.3435 9.9625L36.5032 12.1267C37.8832 13.5063 38.6613 15.376 38.6667 17.3275V32Z" fill="#F89D16"/>
<path d="M7.59999 9.33342C8.55733 9.33342 9.33333 8.55742 9.33333 7.60008V4.40008C9.33333 3.44275 8.55733 2.66675 7.59999 2.66675H4.39999C3.44266 2.66675 2.66666 3.44275 2.66666 4.40008V7.60008C2.66666 8.55742 3.44266 9.33342 4.39999 9.33342H7.59999ZM3.99999 7.60008V6.66675H5.33332V5.33342H3.99999V4.40008C3.99999 4.17925 4.17916 4.00008 4.39999 4.00008H7.59999C7.82083 4.00008 7.99999 4.17925 7.99999 4.40008V5.33342H6.66666V6.66675H7.99999V7.60008C7.99999 7.82092 7.82083 8.00008 7.59999 8.00008H4.39999C4.17916 8.00008 3.99999 7.82092 3.99999 7.60008Z" fill="#F89D16"/>
<path d="M3.33333 11.3333H5.99999V12.6666H3.33333V11.3333Z" fill="#F89D16"/>
<path d="M3.33333 15.3333H5.99999V16.6666H3.33333V15.3333Z" fill="#F89D16"/>
<path d="M15.3333 15.3333H18V16.6666H15.3333V15.3333Z" fill="#F89D16"/>
<path d="M7.33333 11.3333H9.99999V12.6666H7.33333V11.3333Z" fill="#F89D16"/>
<path d="M11.3333 11.3333H14V12.6666H11.3333V11.3333Z" fill="#F89D16"/>
<path d="M15.3333 11.3333H18V12.6666H15.3333V11.3333Z" fill="#F89D16"/>
<path d="M28 3.33325H29.3333V5.33324H28V3.33325Z" fill="#F89D16"/>
<path d="M25.3333 3.33325H26.6667V5.33324H25.3333V3.33325Z" fill="#F89D16"/>
<path d="M22.6667 3.33325H24V5.33324H22.6667V3.33325Z" fill="#F89D16"/>
<path d="M20 3.33325H21.3333V5.33324H20V3.33325Z" fill="#F89D16"/>
<path d="M29.3333 34.6667H30.6667V36.0001H29.3333V34.6667Z" fill="#F89D16"/>
</svg>
