<svg width="40" height="40" viewBox="0 0 40 40" fill="none" xmlns="http://www.w3.org/2000/svg">
<path d="M37.1998 18.0753L36.164 13.9319C36.4472 13.8718 36.6597 13.6205 36.6597 13.3195V12.6514C36.6597 11.201 35.4796 10.021 34.0292 10.021H29.3111V8.64301C29.3111 7.92926 28.7305 7.34863 28.0167 7.34863H3.96656C3.25281 7.34863 2.67219 7.92926 2.67219 8.64301V20C2.67219 20.3459 2.95258 20.6264 3.29852 20.6264C3.64438 20.6264 3.92484 20.346 3.92484 20V8.64301C3.92484 8.61996 3.94352 8.60129 3.96656 8.60129H28.0166C28.0397 8.60129 28.0584 8.61996 28.0584 8.64301V20.0002C28.0584 20.3461 28.3388 20.6265 28.6847 20.6265C29.0305 20.6265 29.311 20.3461 29.311 20.0002V19.2902H36.6992C36.6998 19.2902 36.7003 19.2904 36.7009 19.2904C36.7015 19.2904 36.702 19.2903 36.7026 19.2903C37.6117 19.2909 38.3837 19.8876 38.6488 20.7099H36.7013C36.3555 20.7099 36.075 20.9903 36.075 21.3362V22.6723C36.075 23.7544 36.9553 24.6347 38.0374 24.6347H38.7473V27.3904H37.1096C36.5716 25.8371 35.095 24.7182 33.361 24.7182C31.627 24.7182 30.1503 25.8371 29.6124 27.3904H29.3109V22.6722C29.3109 22.3264 29.0305 22.0459 28.6845 22.0459C28.3387 22.0459 28.0582 22.3263 28.0582 22.6722V27.3903H15.0638C14.5259 25.8369 13.0492 24.718 11.3152 24.718C9.58125 24.718 8.10453 25.8369 7.56664 27.3903H3.96656C3.94352 27.3903 3.92484 27.3716 3.92484 27.3486V25.9707H6.63883C6.98469 25.9707 7.26516 25.6903 7.26516 25.3443C7.26516 24.9984 6.98477 24.718 6.63883 24.718H0.626328C0.280469 24.718 0 24.9984 0 25.3443C0 25.6903 0.280391 25.9707 0.626328 25.9707H2.67227V27.3486C2.67227 28.0623 3.25289 28.6429 3.96664 28.6429H7.34977C7.34961 28.6568 7.34867 28.6707 7.34867 28.6847C7.34867 30.8718 9.12813 32.6512 11.3152 32.6512C13.5023 32.6512 15.2818 30.8718 15.2818 28.6847C15.2818 28.6706 15.2809 28.6568 15.2807 28.6429H29.3955C29.3954 28.6568 29.3945 28.6707 29.3945 28.6847C29.3945 30.8718 31.1739 32.6512 33.361 32.6512C35.5481 32.6512 37.3276 30.8718 37.3276 28.6847C37.3276 28.6706 37.3266 28.6568 37.3265 28.6429H39.3736C39.7195 28.6429 39.9999 28.3625 39.9999 28.0166V21.3361C40 19.6867 38.783 18.3163 37.1998 18.0753ZM29.3111 11.2736H34.0292C34.789 11.2736 35.4071 11.8917 35.4071 12.6514V12.6932H29.3111V11.2736ZM29.3111 18.0376V13.9457H34.8763L35.8993 18.0376H29.3111ZM11.3152 31.3988C9.81875 31.3988 8.60125 30.1814 8.60125 28.6848C8.60125 27.1882 9.81875 25.9708 11.3152 25.9708C12.8117 25.9708 14.0292 27.1882 14.0292 28.6848C14.0292 30.1814 12.8117 31.3988 11.3152 31.3988ZM33.3612 31.3988C31.8647 31.3988 30.6472 30.1814 30.6472 28.6848C30.6472 27.1882 31.8647 25.9708 33.3612 25.9708C34.8577 25.9708 36.0752 27.1882 36.0752 28.6848C36.0752 30.1814 34.8577 31.3988 33.3612 31.3988ZM38.7474 23.3821H38.0376C37.6462 23.3821 37.3277 23.0636 37.3277 22.6722V21.9624H38.7473V23.3821H38.7474Z" fill="#F89D16"/>
<path d="M11.3152 27.3904C10.6015 27.3904 10.0209 27.971 10.0209 28.6848C10.0209 29.3985 10.6015 29.9791 11.3152 29.9791C12.029 29.9791 12.6096 29.3985 12.6096 28.6848C12.6096 27.971 12.029 27.3904 11.3152 27.3904Z" fill="#F89D16"/>
<path d="M33.3612 27.3904C32.6474 27.3904 32.0668 27.971 32.0668 28.6848C32.0668 29.3985 32.6474 29.9791 33.3612 29.9791C34.0749 29.9791 34.6555 29.3985 34.6555 28.6848C34.6555 27.971 34.0749 27.3904 33.3612 27.3904Z" fill="#F89D16"/>
<path d="M26.0125 24.7183H16.6597C16.3138 24.7183 16.0334 24.9987 16.0334 25.3446C16.0334 25.6905 16.3137 25.9709 16.6597 25.9709H26.0125C26.3584 25.9709 26.6388 25.6905 26.6388 25.3446C26.6388 24.9987 26.3584 24.7183 26.0125 24.7183Z" fill="#F89D16"/>
<path d="M9.97915 22.0459H1.96243C1.61657 22.0459 1.33611 22.3263 1.33611 22.6722C1.33611 23.0182 1.6165 23.2986 1.96243 23.2986H9.97915C10.325 23.2986 10.6055 23.0182 10.6055 22.6722C10.6055 22.3263 10.325 22.0459 9.97915 22.0459Z" fill="#F89D16"/>
<path d="M21.779 13.5445C21.5345 13.2999 21.1378 13.2999 20.8933 13.5446L15.3236 19.1142L12.4262 16.2167C12.1816 15.9721 11.785 15.9721 11.5405 16.2167C11.2959 16.4613 11.2959 16.8578 11.5405 17.1024L14.8808 20.4427C15.0031 20.5651 15.1634 20.6262 15.3236 20.6262C15.4838 20.6262 15.6442 20.5651 15.7664 20.4427L21.7789 14.4303C22.0235 14.1856 22.0235 13.7891 21.779 13.5445Z" fill="#F89D16"/>
</svg>
