<svg width="44" height="44" viewBox="0 0 44 44" fill="none" xmlns="http://www.w3.org/2000/svg">
<path d="M20.8972 0.00689078C17.3662 0.0495158 9.77487 0.629766 5.52887 4.52514C2.3705 7.65464 1.26775 12.2815 1.1385 18.0029C1.03125 23.7036 0.901996 34.4094 11.2214 37.3244V41.7643C11.2214 41.7643 11.1567 43.5408 12.331 43.9051C13.7775 44.363 14.6011 42.9963 15.9761 41.5278L18.5405 38.6279C25.6011 39.215 31.009 37.862 31.6319 37.6613C33.0646 37.2034 41.1345 36.1721 42.4531 25.465C43.8061 14.4073 41.7945 7.44014 38.1631 4.28864H38.1411C37.0452 3.27939 32.6411 0.0701408 22.8016 0.0343908C22.8016 0.0343908 22.0715 -0.0151092 20.8972 0.00551578V0.00689078ZM21.0182 3.11577C22.0206 3.10889 22.6297 3.15152 22.6297 3.15152C30.9581 3.17352 34.9332 5.68014 35.871 6.52439C38.929 9.14514 40.5047 15.4261 39.3511 24.6579C38.2552 33.6091 31.7102 34.1756 30.4989 34.562C29.9832 34.727 25.2202 35.9013 19.2197 35.5149C19.2197 35.5149 14.751 40.9076 13.354 42.2964C13.1326 42.5398 12.8741 42.6113 12.7091 42.5755C12.4726 42.5178 12.4011 42.2249 12.4149 41.8234L12.4575 34.4548C3.70562 32.0348 4.22125 22.9034 4.31475 18.1335C4.422 13.3636 5.31712 9.46139 7.98187 6.81864C11.5692 3.57502 18.0152 3.13777 21.0155 3.11577H21.0182ZM21.6782 7.88427C21.6062 7.88354 21.5348 7.89708 21.468 7.9241C21.4012 7.95112 21.3404 7.99109 21.2892 8.04171C21.2379 8.09232 21.1972 8.15258 21.1693 8.21901C21.1415 8.28544 21.127 8.35673 21.1269 8.42877C21.1269 8.73677 21.3771 8.98014 21.6782 8.98014C23.0416 8.95421 24.3965 9.19845 25.665 9.69875C26.9335 10.1991 28.0903 10.9455 29.0689 11.8951C31.0667 13.8353 32.0402 16.4423 32.0774 19.8509C32.0774 20.152 32.3207 20.4023 32.6287 20.4023V20.3803C32.7739 20.3806 32.9133 20.3236 33.0166 20.2216C33.1199 20.1196 33.1787 19.9809 33.1801 19.8358C33.2469 18.2313 32.9867 16.6301 32.4154 15.1294C31.8441 13.6286 30.9736 12.2597 29.8567 11.1059C27.6801 8.97877 24.9219 7.88289 21.6782 7.88289V7.88427ZM14.4306 9.14514C14.0414 9.08827 13.6445 9.1664 13.3059 9.36652H13.277C12.4909 9.82733 11.7827 10.4098 11.1787 11.0921C10.6769 11.6724 10.4046 12.2595 10.3331 12.8246C10.2905 13.1615 10.3194 13.4984 10.4197 13.8201L10.4555 13.8421C11.0206 15.5031 11.759 17.1009 12.661 18.6051C13.8229 20.7185 15.2528 22.6729 16.9152 24.42L16.9647 24.4915L17.0431 24.5493L17.0926 24.607L17.1504 24.6565C18.9038 26.3238 20.863 27.7604 22.9804 28.9314C25.4004 30.2486 26.8689 30.8715 27.7502 31.13V31.1438C28.0087 31.2221 28.2439 31.2579 28.4804 31.2579C29.2315 31.2029 29.9426 30.8979 30.5002 30.3916C31.1795 29.7876 31.7555 29.0765 32.2052 28.2865V28.2728C32.6274 27.478 32.4844 26.7259 31.8752 26.2171C30.6554 25.1508 29.3362 24.2037 27.9359 23.3888C26.9981 22.88 26.0452 23.188 25.6589 23.7036L24.8352 24.7418C24.4131 25.2574 23.6459 25.1859 23.6459 25.1859L23.6239 25.1996C17.9025 23.738 16.3762 17.9451 16.3762 17.9451C16.3762 17.9451 16.3047 17.1573 16.8341 16.7558L17.8654 15.9253C18.359 15.5238 18.7027 14.5723 18.1734 13.6331C17.364 12.2309 16.419 10.9114 15.3519 9.69377C15.1186 9.40671 14.7913 9.2114 14.4279 9.14239L14.4306 9.14514ZM22.6297 10.7786C21.8996 10.7786 21.8996 11.8814 22.6366 11.8814C23.5445 11.8961 24.4406 12.0896 25.2737 12.4508C26.1067 12.812 26.8605 13.3339 27.4917 13.9865C28.0676 14.6218 28.5102 15.3662 28.7931 16.1756C29.0761 16.985 29.1937 17.8429 29.139 18.6986C29.1415 18.8435 29.2006 18.9815 29.3037 19.0833C29.4067 19.1851 29.5455 19.2424 29.6904 19.2431L29.7124 19.272C29.8583 19.2709 29.9979 19.2125 30.1011 19.1093C30.2042 19.0062 30.2627 18.8665 30.2637 18.7206C30.3132 16.5358 29.634 14.7029 28.3016 13.2344C26.9624 11.7659 25.0937 10.9423 22.7081 10.7786H22.6297V10.7786ZM23.5331 13.7431C22.781 13.7211 22.7521 14.8459 23.4974 14.8679C25.3096 14.9614 26.1896 15.8771 26.3051 17.7609C26.3076 17.9039 26.366 18.0402 26.4678 18.1407C26.5696 18.2412 26.7066 18.2978 26.8496 18.2985H26.8716C26.9451 18.2954 27.0173 18.2776 27.0839 18.2463C27.1505 18.2149 27.2101 18.1706 27.2594 18.116C27.3087 18.0613 27.3466 17.9974 27.3709 17.9279C27.3952 17.8585 27.4054 17.7848 27.401 17.7114C27.2717 15.2556 25.9325 13.8724 23.5551 13.7445H23.5331V13.7431Z" fill="white"/>
</svg>
