<svg width="44" height="44" viewBox="0 0 44 44" fill="none" xmlns="http://www.w3.org/2000/svg">
<path d="M22 14.71C17.9859 14.71 14.7102 17.9858 14.7102 21.9999C14.7102 26.0139 17.9859 29.2897 22 29.2897C26.0141 29.2897 29.2898 26.0139 29.2898 21.9999C29.2898 17.9858 26.0141 14.71 22 14.71ZM43.8641 21.9999C43.8641 18.9811 43.8914 15.9897 43.7219 12.9764C43.5523 9.47643 42.7539 6.37018 40.1945 3.81081C37.6297 1.24596 34.5289 0.452994 31.0289 0.283462C28.0102 0.113931 25.0187 0.141275 22.0055 0.141275C18.9867 0.141275 15.9953 0.113931 12.982 0.283462C9.48203 0.452994 6.37578 1.25143 3.81641 3.81081C1.25156 6.37565 0.458594 9.47643 0.289062 12.9764C0.119531 15.9952 0.146875 18.9866 0.146875 21.9999C0.146875 25.0131 0.119531 28.01 0.289062 31.0233C0.458594 34.5233 1.25703 37.6296 3.81641 40.1889C6.38125 42.7538 9.48203 43.5467 12.982 43.7163C16.0008 43.8858 18.9922 43.8585 22.0055 43.8585C25.0242 43.8585 28.0156 43.8858 31.0289 43.7163C34.5289 43.5467 37.6352 42.7483 40.1945 40.1889C42.7594 37.6241 43.5523 34.5233 43.7219 31.0233C43.8969 28.01 43.8641 25.0186 43.8641 21.9999ZM22 33.2163C15.793 33.2163 10.7836 28.2069 10.7836 21.9999C10.7836 15.7928 15.793 10.7835 22 10.7835C28.207 10.7835 33.2164 15.7928 33.2164 21.9999C33.2164 28.2069 28.207 33.2163 22 33.2163ZM33.6758 12.9436C32.2266 12.9436 31.0562 11.7733 31.0562 10.3241C31.0562 8.87487 32.2266 7.70456 33.6758 7.70456C35.125 7.70456 36.2953 8.87487 36.2953 10.3241C36.2957 10.6682 36.2283 11.009 36.0968 11.327C35.9653 11.6451 35.7724 11.934 35.529 12.1773C35.2857 12.4207 34.9968 12.6136 34.6787 12.7451C34.3607 12.8766 34.0199 12.944 33.6758 12.9436Z" fill="white"/>
</svg>
