<svg enable-background="new 0 0 140 140" height="512" viewBox="0 0 140 140" width="512" xmlns="http://www.w3.org/2000/svg"><circle cx="70" cy="70" fill="#509fd7" r="64"/><path d="m23.5599976 87.3500977 4.8599854-11.380127c-6.1300049-4.7700195-9.8499756-11.0500488-9.8499756-17.9399414 0-14.9499512 17.5100098-27.0700684 39.1099854-27.0700684 14.1300049 0 26.4899902 5.1899414 33.3699951 12.9599609l13.6000366 13.6101074c4.7699585 2.3000488 8.7699585 5.3098145 11.6599731 8.8200684l16.4099731 16.4099121c-5.8999634 29.1699219-31.6299438 51.1398926-62.5199585 51.2299805z" opacity=".1"/><path d="m96.7963409 58.0261955c0 14.9459724-17.5196686 27.0564766-39.1181412 27.0564766-7.4875679 0-14.4798927-1.4567261-20.4233551-3.9818268l-13.6915359 6.2457733 4.8539906-11.373497c-6.127985-4.7780075-9.8474655-11.0516281-9.8474655-17.9469261 0-14.9459686 17.5098896-27.0659599 39.1083679-27.0659599s39.1181392 12.1199913 39.1181392 27.0659599z" fill="#ffd25a"/><path d="m53.2134514 55.1895256v-4.1766434l-2.6857071-.6610718c-.2441177-.9164886-.6081505-1.7833862-1.0728531-2.5851898l1.4328308-2.3684616-2.9533005-2.9533195-2.368557 1.4328117c-.8017273-.4646835-1.6686783-.8287163-2.5851479-1.0727997l-.6610909-2.6857567h-4.1765938l-.661087 2.6856842c-.9164734.2440796-1.7834244.6081886-2.5851517 1.0728722l-2.3685532-1.4328117-2.9533024 2.9533195 1.4328289 2.3684616c-.4647007.8018036-.8287354 1.6687012-1.0728531 2.5851898l-2.6857052.6610718v4.1766434l2.685688.6610718c.2440968.9164925.6081696 1.78339 1.0728703 2.5851898l-1.4328289 2.3685341 2.9533024 2.9532471 2.3685532-1.4327354c.8017273.4646072 1.6686783.8287163 2.5851517 1.0728683l.661087 2.685688h4.1765938l.6610909-2.685688c.9164696-.2441521 1.7834206-.6082611 2.5851479-1.0728683l2.368557 1.4327354 2.9533005-2.9532471-1.4328308-2.3685341c.4647026-.8017998.8287735-1.6686974 1.0728722-2.5851898zm-12.9821129 3.8929977c-3.3033676 0-5.9812813-2.6779327-5.9812813-5.9812469 0-3.3034554 2.6779137-5.9813156 5.9812813-5.9813156s5.9812622 2.6778603 5.9812622 5.9813156c0 3.3033142-2.6778946 5.9812469-5.9812622 5.9812469z" fill="#e7a04e"/><path d="m67.0663834 44.2340851-.920105-2.490715-1.7472382.1974297c-.3474731-.4927635-.7555428-.9295349-1.2092972-1.3053093l.3326912-1.7280655-2.4117928-1.1105843-1.0968246 1.376236c-.580471-.1004906-1.1776695-.1265945-1.7779694-.0702515l-.9859047-1.4559975-2.4906807.9200935.1974144 1.7472267c-.4927597.3474541-.9295464.7555733-1.3052826 1.209301l-1.7281151-.3326569-1.110569 2.4117966 1.3762245 1.0967674c-.1004868.5805206-.1266022 1.1776848-.0702782 1.7780037l-1.4559669.9858818.9201088 2.4907112 1.7472191-.1974258c.3474693.4927673.755558.9295311 1.2093124 1.3053093l-.3326721 1.7281075 2.4117737 1.1105385 1.0968399-1.3761902c.5804558.1004486 1.1776695.1265945 1.7779884.0702972l.9858856 1.4559517 2.4906807-.9200935-.1974144-1.7472267c.4927444-.347496.9295311-.755619 1.3052864-1.209301l1.728096.3326111 1.1105881-2.4117508-1.3762436-1.0968094c.1004868-.5805206.1266251-1.1776924.0702896-1.7780113zm-6.8841706 5.1814918c-1.9699364.727726-4.1568375-.2793007-4.8845482-2.2492065-.7277451-1.9699936.2792816-4.1568565 2.2492218-4.8845825 1.9699364-.727726 4.1568108.2792625 4.8845558 2.2492561.7277108 1.9699059-.2792892 4.156807-2.2492294 4.8845329z" fill="#ba9a43"/><path d="m43.2036552 79.7363968c0 14.9459686 17.5196724 27.0564804 39.118145 27.0564804 7.4875641 0 14.4798965-1.4567337 20.4233551-3.9818344l13.6915359 6.2457733-4.8539886-11.373497c6.1279831-4.7780075 9.8474655-11.0516281 9.8474655-17.9469223 0-14.9459686-17.5098953-27.0659637-39.1083679-27.0659637s-39.118145 12.1199951-39.118145 27.0659637z" fill="#e6e7e8"/><g fill="#b0b1b5"><path d="m64.1058044 73.0512314h36.4222412c.84021 0 1.5213623-.6811523 1.5213623-1.5212402 0-.840332-.6811523-1.5214844-1.5213623-1.5214844h-36.4222412c-.8402061 0-1.5213585.6811523-1.5213585 1.5214844.0000001.8400878.6811524 1.5212402 1.5213585 1.5212402z"/><path d="m106.6210632 78.7892685h-48.6082725c-.84021 0-1.5213623.6811523-1.5213623 1.5214844 0 .8400879.6811523 1.5212402 1.5213623 1.5212402h48.6082726c.84021 0 1.5213623-.6811523 1.5213623-1.5212402-.0000001-.8403321-.6811524-1.5214844-1.5213624-1.5214844z"/><path d="m100.5280457 87.5700302h-36.4222413c-.8402061 0-1.5213585.6811523-1.5213585 1.5214844 0 .8400879.6811523 1.5212402 1.5213585 1.5212402h36.4222412c.84021 0 1.5213623-.6811523 1.5213623-1.5212402.0000001-.840332-.6811523-1.5214844-1.5213622-1.5214844z"/></g></svg>