<svg height="512pt" viewBox="-36 0 512 512" width="512pt" xmlns="http://www.w3.org/2000/svg"><path d="m399.199219 328.199219c-.800781 0-1.597657 0-2.199219.199219v2.203124 23.398438 2.199219c7.800781 1.199219 15-4 16.199219-11.597657 1.199219-7.800781-4-15-11.597657-16.203124-1-.199219-1.800781-.199219-2.402343-.199219zm0 0" fill="#f9d0b4"/><path d="m329.199219 354v-23.398438c0-.800781 0-1.601562 0-2.203124-7.800781-1.199219-15 3.800781-16.398438 11.601562-1.402343 7.800781 3.800781 15 11.597657 16.398438 1.601562.203124 3.203124.203124 4.800781 0 0-.796876 0-1.597657 0-2.398438zm0 0" fill="#f9d0b4"/><path d="m368.199219 313c-12.398438 15.601562-30.597657 13.398438-36.800781 12-1-.199219-2 .398438-2.199219 1.398438v.402343 27.199219c0 18.601562 15.199219 33.800781 33.800781 33.800781s33.800781-15.199219 33.800781-33.800781v-30.199219c0-.199219 0-.402343 0-.601562 0-1-.800781-1.800781-1.800781-1.800781-14-.398438-21.398438-6-24.398438-8.796876-.402343-.601562-1.601562-.601562-2.402343.398438 0-.199219 0-.199219 0 0zm0 0" fill="#f9d0b4"/><path d="m363 387.800781c-5.199219 0-10.398438-1.199219-15.199219-3.601562v12.601562l5.398438 15.398438c.402343.800781 1.199219 1.402343 2.199219 1.402343h16.402343c1 0 1.800781-.601562 2.199219-1.402343l5.398438-15.398438v-13c-5.199219 2.597657-10.597657 4-16.398438 4zm0 0" fill="#f9d0b4"/><path d="m255.800781 328.199219c-.800781 0-1.601562 0-2.199219.199219v2.203124 23.398438 2.199219c7.796876 1.199219 15-4 16.199219-11.597657 1.199219-7.800781-4-15-11.601562-16.203124-1-.199219-1.597657-.199219-2.398438-.199219zm0 0" fill="#f9d0b4"/><path d="m185.800781 354v-23.398438c0-.800781 0-1.601562 0-2.203124-7.800781-1.199219-15 3.800781-16.402343 11.601562-1.398438 7.800781 3.800781 15 11.601562 16.398438 1.601562.203124 3.199219.203124 4.800781 0 0-.796876 0-1.597657 0-2.398438zm0 0" fill="#f9d0b4"/><path d="m224.800781 313c-12.402343 15.601562-30.601562 13.398438-36.800781 12-1-.199219-2 .398438-2.199219 1.398438v.402343 27.199219c0 18.601562 15.199219 33.800781 33.800781 33.800781 18.597657 0 33.796876-15.199219 33.796876-33.800781v-30.199219c0-.199219 0-.402343 0-.601562 0-1-.796876-1.800781-1.796876-1.800781-14-.398438-21.402343-6-24.402343-8.796876-.398438-.601562-1.597657-.601562-2.398438.398438 0-.199219 0-.199219 0 0zm0 0" fill="#f9d0b4"/><path d="m219.800781 387.800781c-5.199219 0-10.402343-1.199219-15.199219-3.601562v12.601562l5.398438 15.398438c.398438.800781 1.199219 1.402343 2.199219 1.402343h16.402343c1 0 1.796876-.601562 2.199219-1.402343l5.398438-15.398438v-13c-5.398438 2.597657-10.800781 4-16.398438 4zm0 0" fill="#f9d0b4"/><path d="m112.398438 328.199219c-.796876 0-1.597657 0-2.199219.199219v2.203124 23.398438 2.199219c7.800781 1.199219 15-4 16.199219-11.597657 1.203124-7.800781-4-15-11.597657-16.203124-1-.199219-1.601562-.199219-2.402343-.199219zm0 0" fill="#f9d0b4"/><path d="m42.398438 354v-23.398438c0-.800781 0-1.601562 0-2.203124-7.796876-1.199219-15 3.800781-16.398438 11.601562s3.800781 15 11.601562 16.398438c1.597657.203124 3.199219.203124 4.796876 0 0-.796876 0-1.597657 0-2.398438zm0 0" fill="#f9d0b4"/><path d="m81.398438 313c-12.398438 15.601562-30.597657 13.398438-36.796876 12-1-.199219-2 .398438-2.203124 1.398438v.402343 27.199219c0 18.601562 15.203124 33.800781 33.800781 33.800781 18.601562 0 33.800781-15.199219 33.800781-33.800781v-30.199219c0-.199219 0-.402343 0-.601562 0-1-.800781-1.800781-1.800781-1.800781-14-.398438-21.398438-6-24.398438-8.796876-.402343-.601562-1.601562-.601562-2.402343.398438 0-.199219 0-.199219 0 0zm0 0" fill="#f9d0b4"/><path d="m76.398438 387.800781c-5.199219 0-10.398438-1.199219-15.199219-3.601562v12.601562l5.402343 15.398438c.398438.800781 1.199219 1.402343 2.199219 1.402343h16.398438c1 0 1.800781-.601562 2.199219-1.402343l5.402343-15.398438v-13c-5.402343 2.597657-10.800781 4-16.402343 4zm0 0" fill="#f9d0b4"/><path d="m435.199219 492.800781-3.800781-69.402343c-.398438-5.796876-4.398438-10.796876-10-12.199219l-26.199219-6.597657-15.800781-7.800781-5.398438 15.398438c-.398438.800781-1.199219 1.402343-2.199219 1.402343h-16.402343c-1 0-1.796876-.601562-2.199219-1.402343l-5.398438-15.398438-15.800781 7.800781-26.199219 6.597657c-5.601562 1.402343-9.800781 6.402343-10 12.199219l-3.800781 69.402343c-.398438 7.398438 5.199219 13.597657 12.601562 14h.796876 116.601562c7.398438 0 13.398438-6 13.398438-13.402343-.199219 0-.199219-.199219-.199219-.597657zm0 0" fill="#e9e9ea"/><path d="m291.800781 492.800781-3.800781-69.402343c-.398438-5.796876-4.398438-10.796876-10-12.199219l-26.199219-6.597657-15.800781-7.800781-5.398438 15.398438c-.402343.800781-1.203124 1.402343-2.203124 1.402343h-16.398438c-1 0-1.800781-.601562-2.199219-1.402343l-5.402343-15.398438-15.796876 7.800781-26.402343 6.597657c-5.597657 1.402343-9.800781 6.402343-10 12.199219l-3.800781 69.402343c-.398438 7.398438 5.203124 13.597657 12.601562 14h.800781 116.597657c7.402343 0 13.402343-6 13.402343-13.402343 0 0 0-.199219 0-.597657zm0 0" fill="#e9e9ea"/><path d="m148.398438 492.800781-3.796876-69.402343c-.402343-5.796876-4.402343-10.796876-10-12.199219l-26.402343-6.597657-15.800781-7.800781-5.398438 15.398438c-.398438.800781-1.199219 1.402343-2.199219 1.402343h-16.402343c-1 0-1.796876-.601562-2.199219-1.402343l-5.398438-15.398438-15.800781 7.800781-26.199219 6.597657c-5.601562 1.402343-9.800781 6.402343-10 12.199219l-3.800781 69.402343c-.398438 7.398438 5.199219 13.597657 12.601562 14h.796876 116.601562c7.398438 0 13.398438-6 13.398438-13.402343.203124 0 0-.199219 0-.597657zm0 0" fill="#e9e9ea"/><path d="m387 68.800781h-333.601562c-11 0-20 9-20 20s9 20 20 20h333.800781c11 0 20-9 20-20s-9-20-20.199219-20zm0 0" fill="#306191"/><path d="m372 88.800781h-303.601562c-3.597657 0-6.597657-3-6.597657-6.601562v-13.199219h317.199219v13.398438c-.199219 3.402343-3.199219 6.402343-7 6.402343zm0 0" fill="#457ba8"/><path d="m76.398438 280.601562c6.800781 0 13.203124 3.597657 16.601562 9.398438 3-1.800781 6.398438-2.800781 9.800781-2.800781 10.597657 0 19.398438 8.601562 19.398438 19.402343v25.398438h51.601562c.398438-.398438.597657-.601562 1-.800781v-15.597657c0-19.203124 15.597657-34.800781 35-35h10c6.800781 0 13.199219 3.597657 16.597657 9.398438 3-1.800781 6.402343-2.800781 9.800781-2.800781 10.601562 0 19.402343 8.601562 19.402343 19.402343v25.398438h51.597657c.402343-.398438.601562-.601562 1-.800781v-15.597657c0-19.203124 15.601562-34.800781 35-35h10c6.199219 0 12 3 15.601562 8v-180h-311.800781v171.796876h9.398438zm0 0" fill="#acdef9"/><path d="m129 236.398438v60.601562h31v-63.398438c-10.199219 1.398438-20.601562 2.398438-31 2.796876zm0 0" fill="#60bae2"/><path d="m313 163c-9.199219 8-18.800781 15.601562-29 22.398438v111.800781h31v-136zm0 0" fill="#ea4647"/><path d="m236.398438 290.199219c5-3 11.203124-3.597657 16.800781-1.398438v-84.800781c-10 5.199219-20.398438 9.800781-31 13.800781v63.199219c5.800781.601562 11 4 14.199219 9.199219zm0 0" fill="#ffae2c"/><path d="m209.800781 280.601562h10c.800781 0 1.597657 0 2.398438.199219v-63.199219c-10.199219 3.796876-20.398438 7.199219-31 9.796876v58.800781c5.402343-3.597657 12-5.597657 18.601562-5.597657zm0 0" fill="#ffcd29"/><path d="m191 286.199219v-58.800781c-10.199219 2.601562-20.601562 4.800781-31 6.203124v63.398438h20.199219c2.800781-4.199219 6.402343-8 10.800781-10.800781zm0 0" fill="#55acd5"/><path d="m263 297h21.199219v-111.601562c-10 6.800781-20.398438 12.800781-31 18.402343v84.800781c4 1.597657 7.402343 4.597657 9.800781 8.398438zm0 0" fill="#f75c64"/><path d="m327 328.199219c.800781 0 1.398438 0 2.199219.199219v-1.597657c0-1 .800781-1.800781 1.800781-1.800781h.398438c6.203124 1.199219 24.402343 3.398438 36.800781-12 .601562-.800781 1.800781-1 2.601562-.398438 0 0 .199219 0 .199219.199219 2.800781 2.800781 10.199219 8.398438 24.398438 8.800781 1 0 1.800781.796876 1.800781 1.796876v.601562 4.601562c4.402343-.601562 8.800781.796876 12 3.796876v-25.398438c0-10.601562-8.597657-19.398438-19.398438-19.398438-3.402343 0-7 1-9.800781 2.796876-3.398438-5.796876-9.800781-9.398438-16.601562-9.398438h-10c-19.199219 0-34.796876 15.601562-35 35v15.601562c2.402343-2.402343 5.402343-3.402343 8.601562-3.402343zm0 0" fill="#6d6c6b"/><path d="m183.601562 328.199219c.796876 0 1.398438 0 2.199219.199219v-1.597657c0-1 .800781-1.800781 1.800781-1.800781h.398438c6.199219 1.199219 24.398438 3.398438 36.800781-12 .597657-.800781 1.800781-1 2.597657-.398438 0 0 .203124 0 .203124.199219 2.796876 2.800781 10.199219 8.398438 24.398438 8.800781 1 0 1.800781.796876 1.800781 1.796876v.601562 4.601562c4.398438-.601562 8.800781.796876 12 3.796876v-25.398438c0-10.601562-8.601562-19.398438-19.402343-19.398438-3.398438 0-7 1-9.796876 2.796876-3.402343-5.796876-9.800781-9.398438-16.601562-9.398438h-10c-19.199219 0-34.800781 15.601562-35 35v15.601562c2.398438-2.402343 5.398438-3.402343 8.601562-3.402343zm0 0" fill="#6d6c6b"/><path d="m40.199219 328.199219c.800781 0 1.402343 0 2.199219.199219v-1.597657c0-1 .800781-1.800781 1.800781-1.800781h.402343c6.199219 1.199219 24.398438 3.398438 36.796876-12 .601562-.800781 1.800781-1 2.601562-.398438 0 0 .199219 0 .199219.199219 2.800781 2.800781 10.199219 8.398438 24.402343 8.800781 1 0 1.796876.796876 1.796876 1.796876v.601562 4.601562c4.402343-.601562 8.800781.796876 12 3.796876v-25.398438c0-10.601562-8.597657-19.398438-19.398438-19.398438-3.398438 0-7 1-9.800781 2.796876-3.398438-5.796876-9.800781-9.398438-16.597657-9.398438h-10c-19.203124 0-34.800781 15.601562-35 35v15.601562c2.398438-2.402343 5.398438-3.402343 8.597657-3.402343zm0 0" fill="#6d6c6b"/><path d="m387 113.800781h-333.601562c-13.796876 0-25-11.199219-25-25s11.203124-25 25-25h333.800781c13.800781 0 25 11.199219 25 25s-11.199219 25-25.199219 25zm-333.800781-40c-8.199219 0-15 6.800781-15 15s6.800781 15 15 15h333.800781c8.199219 0 15-6.800781 15-15s-6.800781-15-15-15zm0 0" fill="#231f20"/><path d="m317.199219 337.199219h-51.597657c-2.800781 0-5-2.199219-5-5v-25.398438c0-7.800781-6.402343-14.402343-14.203124-14.402343-2.597657 0-5.199219.601562-7.398438 2-2.398438 1.402343-5.398438.601562-6.800781-1.796876-2.597657-4.402343-7.199219-7-12.398438-7h-10c-16.601562 0-30 13.398438-30 30v15.597657c0 1.601562-.601562 3-1.800781 4-.199219.199219-.398438.402343-.601562.601562-1 .800781-2.199219 1.398438-3.398438 1.398438h-51.800781c-2.800781 0-5-2.199219-5-5v-25.398438c0-7.800781-6.398438-14.402343-14.199219-14.402343-2.601562 0-5.199219.601562-7.398438 2-2.402343 1.402343-5.402343.601562-6.800781-1.796876-2.601562-4.402343-7.199219-7-12.402343-7h-9.199219c-2.800781 0-5-2.203124-5-5v-171.800781c0-2.800781 2.199219-5 5-5h311.601562c2.800781 0 5 2.199219 5 5v180c0 2.800781-2.199219 5-5 5-1.601562 0-3.199219-.800781-4-2-2.601562-3.800781-7-6-11.601562-6h-10c-16.597657 0-30 13.398438-30 30v15.597657c0 1.601562-.597657 3-1.800781 4-.199219.203124-.398438.402343-.597657.601562-1 .601562-2.199219 1.199219-3.601562 1.199219zm-46.597657-10h42.597657v-11.597657c0-22 17.800781-40 40-40h10c3.601562 0 7.402343.796876 10.601562 2.398438v-164.199219h-301.800781v161.800781h4.199219c7 0 13.601562 3 18.199219 8.199219 2.601562-1 5.402343-1.402343 8.402343-1.402343 13.398438 0 24.398438 11 24.398438 24.402343v20.398438h42.601562v-11.597657c0-22 17.800781-40 40-40h10c7 0 13.597657 3 18.199219 8.199219 2.601562-1 5.398438-1.402343 8.398438-1.402343 13.402343 0 24.402343 11 24.402343 24.402343zm0 0" fill="#231f20"/><path d="m397.398438 40h-17.398438c-2.800781 0-5-2.199219-5-5s2.199219-5 5-5h17.398438c2.800781 0 5 2.199219 5 5s-2.398438 5-5 5zm0 0" fill="#ffcd29"/><path d="m388.601562 48.800781c-2.800781 0-5-2.199219-5-5v-17.402343c0-2.796876 2.199219-5 5-5 2.796876 0 5 2.203124 5 5v17.402343c0 2.800781-2.203124 5-5 5zm0 0" fill="#ffcd29"/><path d="m29 188h-22.398438c-2.800781 0-5-2.199219-5-5s2.199219-5 5-5h22.398438c2.800781 0 5 2.199219 5 5s-2.199219 5-5 5zm0 0" fill="#f75c64"/><path d="m17.800781 199.199219c-2.800781 0-5-2.199219-5-5v-22.398438c0-2.800781 2.199219-5 5-5s5 2.199219 5 5v22.398438c0 2.800781-2.199219 5-5 5zm0 0" fill="#f75c64"/><path d="m31.398438 245.800781c-.398438 0-.597657 0-1-.199219-.398438 0-.597657-.203124-1-.402343-.398438-.199219-.597657-.199219-.796876-.398438-.203124-.199219-.601562-.402343-.800781-.601562-2-2-2-5 0-7 .199219-.199219.398438-.398438.800781-.597657.199219-.203124.597657-.402343.796876-.402343.402343-.199219.601562-.199219 1-.398438.601562-.199219 1.203124-.199219 2 0 .402343 0 .601562.199219 1 .398438.402343.199219.601562.199219.800781.402343.199219.199219.601562.398438.800781.597657 2 2 2 5.199219 0 7-.199219.199219-.398438.402343-.800781.601562-.199219.199219-.597657.398438-.800781.398438-.398438.199219-.597657.199219-1 .402343-.199219.199219-.597657.199219-1 .199219zm0 0" fill="#ffcd29"/><path d="m409 155.800781c-2.800781 0-5-2.199219-5-5 0-1.402343.601562-2.601562 1.398438-3.601562 2-1.800781 5-1.800781 7 0 2 2 2 5.199219 0 7-.796876 1-2.199219 1.601562-3.398438 1.601562zm0 0" fill="#6dcc6d"/><g fill="#231f20"><path d="m116.800781 241.800781c-2.800781 0-5-2.199219-5-5s2.199219-5 5-5c71 0 139.597657-25.800781 193-72.601562l18.597657-16.199219c2-1.800781 5.203124-1.601562 7 .398438 1.800781 2 1.601562 5.203124-.398438 7l-18.601562 16.203124c-55.199219 48.597657-126.199219 75.199219-199.597657 75.199219zm0 0"/><path d="m331.601562 173c-2.800781 0-5-2.199219-5-5v-16.199219h-16.203124c-2.796876 0-5-2.199219-5-5s2.203124-5 5-5h21.203124c2.796876 0 5 2.199219 5 5v21.199219c0 2.601562-2.203124 5-5 5zm0 0"/><path d="m126.601562 140.800781h-13.601562c-2.800781 0-5-2.199219-5-5s2.199219-5 5-5h13.601562c2.796876 0 5 2.199219 5 5s-2.402343 5-5 5zm0 0"/><path d="m323.601562 302h-60.601562c-2.800781 0-5-2.199219-5-5s2.199219-5 5-5h60.601562c2.796876 0 5 2.199219 5 5s-2.203124 5-5 5zm0 0"/><path d="m180.199219 302h-60.398438c-2.800781 0-5-2.199219-5-5s2.199219-5 5-5h60.398438c2.800781 0 5 2.199219 5 5s-2.199219 5-5 5zm0 0"/><path d="m399.199219 361.398438c-1 0-2 0-3-.199219-2.597657-.398438-4.398438-2.597657-4.199219-5.199219 0-.601562 0-1.199219 0-2v-23.398438c0-.601562 0-1.402343 0-2-.199219-2.601562 1.601562-4.800781 4.199219-5.203124 10.402343-1.597657 20.199219 5.402343 22 15.800781 1.800781 10.402343-5.398438 20.199219-15.800781 22-1.199219.199219-2.199219.199219-3.199219.199219zm2.800781-27.796876v17.398438c4.800781-1.601562 7.398438-6.800781 5.800781-11.601562-.800781-2.597657-3-4.796876-5.800781-5.796876zm0 0"/><path d="m327 361.398438c-10.601562 0-19.199219-8.597657-19.199219-19.199219 0-10.597657 8.597657-19.199219 19.199219-19.199219 1 0 2 0 3 .199219 2.601562.402343 4.398438 2.601562 4.199219 5.199219v2 23.601562 2c.199219 2.601562-1.597657 4.800781-4.199219 5.199219-1 .199219-2 .199219-3 .199219zm-2.800781-27.796876c-4.800781 1.597657-7.398438 6.796876-5.800781 11.597657 1 2.800781 3 5 5.800781 5.800781zm0 0"/><path d="m363 392.800781c-21.398438 0-38.800781-17.402343-38.800781-38.800781v-27.199219c0-3.800781 3-6.800781 6.800781-6.800781.398438 0 1 0 1.398438.199219 6 1.199219 21.402343 2.800781 31.800781-10.199219 2.402343-3 6.601562-3.398438 9.601562-1.199219.199219.199219.398438.398438.597657.398438 2.203124 2 8.402343 7 21 7.402343 3.601562.199219 6.601562 3 6.601562 6.597657v30.800781c0 21.398438-17.398438 38.800781-39 38.800781zm-28.800781-62.199219v23.398438c0 16 13 28.800781 28.800781 28.800781 16 0 28.800781-13 28.800781-28.800781v-27.601562c-8-.398438-15.601562-3.199219-22-7.796876-11.800781 12.597657-27.402343 12.796876-35.601562 12zm37.800781-14.601562"/><path d="m409 337.199219c-1.199219 0-2.601562-.597657-3.398438-1.398438-2-2-5-3-7.800781-2.402343-2.800781.402343-5.199219-1.398438-5.800781-4.199219 0-.199219 0-.597657 0-.800781v-2c-8-.398438-15.601562-3.199219-22-7.796876-12.199219 13-28 13-36.199219 12-1 2-3.199219 3.199219-5.402343 2.796876-2.597657-.398438-5.199219.203124-7.199219 1.800781-2.199219 1.800781-5.398438 1.402343-7-.800781-.800781-.796876-1-2-1-3.199219v-15.597657c0-22 17.800781-40 40-40h10c7 0 13.601562 3 18.199219 8.199219 2.601562-1 5.402343-1.402343 8.402343-1.402343 13.398438 0 24.398438 11 24.398438 24.402343v25.398438c-.199219 2.800781-2.597657 5-5.199219 5zm-7-13.800781c.601562 0 1.398438.203124 2 .402343v-17c0-7.800781-6.398438-14.402343-14.199219-14.402343-2.601562 0-5.199219.601562-7.402343 2-2.398438 1.402343-5.398438.601562-6.796876-1.796876-2.601562-4.402343-7.203124-7-12.203124-7h-10c-16.597657 0-30 13.398438-30 30v8c.601562-.203124 1.203124-.203124 2-.203124 1.402343-2.597657 4.402343-3.796876 7.203124-3.199219 6 1.199219 21.398438 2.800781 31.796876-10.199219 2.402343-3 6.601562-3.398438 9.601562-1.199219.199219.199219.398438.398438.601562.398438 2.199219 2 8.398438 7 21 7.402343 3.398438 0 6.199219 3 6.398438 6.796876zm0 0"/><path d="m363.601562 437.199219c-2.800781 0-5-2.199219-5-5 0-.398438 0-.597657.199219-1 0-.398438.199219-.597657.199219-1 .199219-.398438.199219-.597657.398438-.800781.203124-.199219.402343-.597657.601562-.796876.199219-.203124.398438-.402343.800781-.601562.199219-.199219.597657-.398438.800781-.398438.199219-.203124.597657-.203124 1-.203124 2.796876-.597657 5.398438 1.203124 5.796876 4 .402343 1.601562-.199219 3.402343-1.398438 4.601562-.800781.800781-2 1.199219-3.398438 1.199219zm0 0"/><path d="m363.601562 455.398438c-.402343 0-.601562 0-1 0-.402343 0-.601562-.199219-1-.199219-.402343-.199219-.601562-.199219-.800781-.398438s-.601562-.402343-.800781-.601562-.398438-.398438-.601562-.800781c-.199219-.199219-.398438-.597657-.398438-.796876-.199219-.203124-.199219-.601562-.199219-1 0-.402343 0-.601562-.199219-1 0-1.402343.597657-2.601562 1.398438-3.601562.199219-.199219.398438-.398438.800781-.601562.199219-.199219.597657-.398438.800781-.398438.199219-.199219.597657-.199219 1-.199219 1.597657-.402343 3.398438.199219 4.597657 1.398438 1 1 1.402343 2.199219 1.402343 3.601562 0 .398438 0 .597657-.203124 1 0 .398438-.199219.597657-.199219 1-.199219.398438-.199219.597657-.398438.800781-.199219.199219-.402343.597657-.601562.796876-1 .402343-2.199219 1-3.597657 1zm0 0"/><path d="m363.601562 473.398438c-.402343 0-.601562 0-1-.199219-.402343 0-.601562-.199219-1-.199219-.402343-.199219-.601562-.199219-.800781-.398438-.199219-.203124-.601562-.402343-.800781-.601562s-.398438-.398438-.601562-.800781c-.199219-.199219-.398438-.597657-.398438-.800781-.199219-.199219-.199219-.597657-.199219-1-.199219-.597657-.199219-1.398438 0-2 0-.398438.199219-.597657.199219-1 .199219-.398438.199219-.597657.398438-.796876.203124-.203124.402343-.601562.601562-.800781s.398438-.402343.800781-.601562c.199219-.199219.597657-.398438.800781-.398438.199219-.199219.597657-.199219 1-.199219 1.597657-.402343 3.398438.199219 4.597657 1.398438.199219.199219.402343.398438.601562.800781.199219.199219.398438.597657.398438.800781.199219.199219.199219.597657.199219 1 .203124.597657.203124 1.398438 0 2-.199219.597657-.398438 1.199219-.796876 1.796876-.203124.203124-.402343.601562-.601562.800781-.800781.601562-2 1.199219-3.398438 1.199219zm0 0"/><path d="m363.601562 491.601562c-.402343 0-.601562 0-1-.203124-.402343 0-.601562-.199219-1-.199219-.203124-.199219-.601562-.199219-.800781-.398438s-.601562-.402343-.800781-.601562c-1-1-1.398438-2.199219-1.398438-3.597657 0-.402343 0-.601562.199219-1 0-.402343.199219-.601562.199219-1 .199219-.402343.199219-.601562.398438-.800781.203124-.199219.402343-.601562.601562-.800781s.398438-.398438.800781-.601562c.199219-.199219.597657-.398438.800781-.398438.199219-.199219.597657-.199219 1-.199219 1.597657-.402343 3.398438.199219 4.597657 1.398438.199219.199219.402343.402343.601562.800781.398438.601562.597657 1.199219.800781 1.800781 0 .398438.199219.597657.199219 1 0 1.398438-.601562 2.597657-1.402343 3.597657-1.199219.601562-2.398438 1.203124-3.796876 1.203124zm0 0"/><path d="m403.199219 506.398438c-2.800781 0-5-2.199219-5-5v-51c0-2.796876 2.199219-5 5-5s5 2.203124 5 5v51c0 2.800781-2.199219 5-5 5zm0 0"/><path d="m323 506.398438c-2.800781 0-5-2.199219-5-5v-51c0-2.796876 2.199219-5 5-5s5 2.203124 5 5v51c0 2.800781-2.199219 5-5 5zm0 0"/><path d="m371.800781 418.601562h-16.402343c-3 0-5.796876-2-6.796876-4.800781l-5.402343-15.402343c-.199219-.597657-.199219-1-.199219-1.597657v-12.601562c0-2.800781 2.199219-5 5-5 .800781 0 1.601562.199219 2.199219.601562 4 2 8.402343 3 12.800781 3 4.800781 0 9.398438-1.199219 13.800781-3.402343 2.398438-1.398438 5.398438-.398438 6.800781 2 .398438.800781.597657 1.601562.597657 2.402343v13c0 .597657 0 1.199219-.199219 1.597657l-5.398438 15.402343c-1 2.800781-3.800781 4.800781-6.800781 4.800781zm-14.402343-10h12.402343l4.398438-12.601562v-4.800781c-7 2-14.199219 2.199219-21.199219.199219v4.402343zm0 0"/><path d="m422 512h-116.601562c-10.199219 0-18.398438-8.199219-18.398438-18.398438 0-.402343 0-.601562 0-1l3.800781-69.402343c.398438-8 6-14.800781 13.800781-16.800781l25.796876-6.398438 15.402343-7.601562c2.398438-1.199219 5.398438-.199219 6.597657 2.203124 0 .199219.203124.398438.203124.597657l4.597657 13.402343h12.402343l4.597657-13.402343c1-2.597657 3.800781-4 6.402343-3 .199219 0 .398438.199219.597657.199219l15.402343 7.601562 25.796876 6.398438c7.800781 2 13.402343 8.800781 13.800781 16.800781l3.800781 69.402343c.601562 10.199219-7.199219 18.796876-17.398438 19.398438 0 0-.402343 0-.601562 0zm-76.800781-108.199219-10.800781 5.199219c-.398438.199219-.597657.199219-1 .398438l-26.199219 6.601562c-3.597657.800781-6.199219 4-6.398438 7.601562l-3.800781 69.398438c-.199219 4.601562 3.199219 8.601562 7.800781 8.800781h.398438 116.601562c4.597657 0 8.398438-3.800781 8.398438-8.402343 0-.199219 0-.398438 0-.398438l-3.800781-69.398438c-.199219-3.601562-2.796876-6.800781-6.398438-7.601562l-26.199219-6.601562c-.402343 0-.601562-.199219-1-.398438l-10.800781-5.199219-3.398438 10c-1 3-3.800781 4.800781-6.800781 4.800781h-16.402343c-3 0-5.796876-2-6.796876-4.800781zm0 0"/><path d="m255.800781 361.398438c-1 0-2 0-3-.199219-2.601562-.398438-4.402343-2.597657-4.199219-5.199219 0-.601562 0-1.199219 0-2v-23.398438c0-.601562 0-1.402343 0-2-.203124-2.601562 1.597657-4.800781 4.199219-5.203124 10.398438-1.597657 20.199219 5.402343 22 15.800781 1.800781 10.402343-5.402343 20.199219-15.800781 22-1.199219.199219-2.199219.199219-3.199219.199219zm2.800781-27.796876v17.398438c4.796876-1.601562 7.398438-6.800781 5.796876-11.601562-.796876-2.597657-3-4.796876-5.796876-5.796876zm0 0"/><path d="m183.601562 361.398438c-10.601562 0-19.203124-8.597657-19.203124-19.199219 0-10.597657 8.601562-19.199219 19.203124-19.199219 1 0 2 0 3 .199219 2.597657.402343 4.398438 2.601562 4.199219 5.199219v2 23.601562 2c.199219 2.601562-1.601562 4.800781-4.199219 5.199219-.800781.199219-2 .199219-3 .199219zm-2.800781-27.796876c-4.800781 1.597657-7.402343 6.796876-5.800781 11.597657 1 2.800781 3 5 5.800781 5.800781zm0 0"/><path d="m219.800781 392.800781c-21.402343 0-38.800781-17.402343-38.800781-38.800781v-27.199219c0-3.800781 3-6.800781 6.800781-6.800781.398438 0 1 0 1.398438.199219 6 1.199219 21.402343 2.800781 31.800781-10.199219 2.398438-3 6.601562-3.398438 9.601562-1.199219.199219.199219.398438.398438.597657.398438 2.199219 2 8.402343 7 21 7.402343 3.601562.199219 6.601562 3 6.601562 6.597657v30.800781c-.199219 21.398438-17.601562 38.800781-39 38.800781zm-29-62.199219v23.398438c0 16 13 28.800781 28.800781 28.800781 15.796876 0 28.796876-13 28.796876-28.800781v-27.601562c-8-.398438-15.597657-3.199219-22-7.796876-11.796876 12.597657-27.398438 12.796876-35.597657 12zm37.800781-14.601562"/><path d="m265.601562 337.199219c-1.203124 0-2.601562-.597657-3.402343-1.398438-2-2-5-3-7.800781-2.402343-2.796876.402343-5.199219-1.398438-5.796876-4.199219 0-.199219 0-.597657 0-.800781v-2c-8-.398438-15.601562-3.199219-22-7.796876-12.203124 13-28 13-36.203124 12-1 2-3.199219 3.199219-5.398438 2.796876-2.601562-.398438-5.199219.203124-7.199219 1.800781-2.199219 1.800781-5.402343 1.402343-7-.800781-.800781-.796876-1-2-1-3.199219v-15.597657c0-22 17.800781-40 40-40h10c7 0 13.597657 3 18.199219 8.199219 2.601562-1 5.398438-1.402343 8.398438-1.402343 13.402343 0 24.402343 11 24.402343 24.402343v25.398438c-.199219 2.800781-2.402343 5-5.199219 5zm-7-13.800781c.597657 0 1.398438.203124 2 .402343v-17c0-7.800781-6.402343-14.402343-14.203124-14.402343-2.597657 0-5.199219.601562-7.398438 2-2.398438 1.402343-5.398438.601562-6.800781-1.796876-2.597657-4.402343-7.199219-7-12.398438-7h-10c-16.601562 0-30 13.398438-30 30v8c.597657-.203124 1.199219-.203124 2-.203124 1.398438-2.597657 4.398438-3.796876 7.199219-3.199219 6 1.199219 21.398438 2.800781 31.800781-10.199219 2.398438-3 6.597657-3.398438 9.597657-1.199219.203124.199219.402343.398438.601562.398438 2.199219 2 8.398438 7 21 7.402343 3.601562 0 6.398438 3 6.601562 6.796876zm0 0"/><path d="m220.199219 437.199219c-2.800781 0-5-2.199219-5-5 0-.398438 0-.597657.199219-1 0-.398438.203124-.597657.203124-1 .199219-.199219.199219-.597657.398438-.800781.199219-.199219.398438-.597657.601562-.796876 2-1.800781 5-1.800781 7 0 .199219.199219.398438.398438.597657.796876.402343.601562.601562 1.203124.800781 1.800781 0 .402343 0 .601562.199219 1 0 2.800781-2.199219 5-5 5zm0 0"/><path d="m220.199219 455.398438c-2.800781 0-5-2.199219-5-5 0-1.398438.601562-2.597657 1.402343-3.597657 2-1.800781 5-1.800781 7 0 2 2 2 5.199219 0 7-.800781 1-2 1.597657-3.402343 1.597657zm0 0"/><path d="m220.199219 473.398438c-2.800781 0-5-2.199219-5-5 0-.398438 0-.597657.199219-1 0-.398438.203124-.597657.203124-1 .199219-.398438.199219-.597657.398438-.796876.199219-.203124.398438-.601562.601562-.800781 2-1.800781 5-1.800781 7 0 .199219.199219.398438.398438.597657.800781.199219.199219.402343.597657.402343.796876.199219.203124.199219.601562.199219 1 0 .402343 0 .601562.199219 1 .199219 2.800781-2 5-4.800781 5zm0 0"/><path d="m220.199219 491.601562c-2.800781 0-5-2.203124-5-5 0-1.402343.601562-2.601562 1.402343-3.601562 2-1.800781 5-1.800781 7 0 2 2 2 5.199219 0 7-.800781 1-2 1.601562-3.402343 1.601562zm0 0"/><path d="m259.800781 506.398438c-2.800781 0-5-2.199219-5-5v-51c0-2.796876 2.199219-5 5-5s5 2.203124 5 5v51c0 2.800781-2.199219 5-5 5zm0 0"/><path d="m179.601562 506.398438c-2.800781 0-5-2.199219-5-5v-51c0-2.796876 2.199219-5 5-5 2.796876 0 5 2.203124 5 5v51c0 2.800781-2.203124 5-5 5zm0 0"/><path d="m228.398438 418.601562h-16.398438c-3 0-5.800781-2-6.800781-4.800781l-5.398438-15.402343c-.199219-.597657-.199219-1-.199219-1.597657v-12.601562c0-2.800781 2.199219-5 5-5 .796876 0 1.597657.199219 2.199219.601562 4 2 8.398438 3 12.800781 3 4.796876 0 9.398438-1.199219 13.796876-3.402343 2.402343-1.398438 5.402343-.398438 6.800781 2 .402343.800781.601562 1.601562.601562 2.402343v13c0 .597657 0 1.199219-.199219 1.597657l-5.402343 15.402343c-1 2.800781-3.800781 4.800781-6.800781 4.800781zm-14.398438-10h12.398438l4.402343-12.601562v-4.800781c-7 2-14.199219 2.199219-21.199219.199219v4.402343zm0 0"/><path d="m278.601562 512h-116.800781c-10.199219 0-18.402343-8.199219-18.402343-18.398438 0-.402343 0-.601562 0-1l3.800781-69.402343c.402343-8 6-14.800781 13.800781-16.800781l25.800781-6.398438 15.398438-7.601562c2.402343-1.199219 5.402343-.199219 6.601562 2.203124 0 .199219.199219.398438.199219.597657l4.601562 13.402343h12.398438l4.601562-13.402343c1-2.597657 3.796876-4 6.398438-3 .199219 0 .398438.199219.601562.199219l15.398438 7.601562 25.800781 6.398438c7.800781 2 13.398438 8.800781 13.800781 16.800781l3.796876 69.402343c.601562 10.199219-7.199219 18.796876-17.398438 19.398438.199219 0-.199219 0-.398438 0zm-76.800781-108.199219-10.800781 5.199219c-.398438.199219-.601562.199219-1 .398438l-26.398438 6.601562c-3.601562.800781-6.203124 4-6.402343 7.601562l-3.800781 69.398438c-.199219 4.601562 3.203124 8.601562 7.800781 8.800781h.402343 116.597657c4.601562 0 8.402343-3.800781 8.402343-8.402343 0-.199219 0-.398438 0-.398438l-3.800781-69.398438c-.199219-3.601562-2.800781-6.800781-6.402343-7.601562l-26.199219-6.601562c-.398438 0-.597657-.199219-1-.398438l-10.800781-5.199219-3.398438 10c-1 3-3.800781 4.800781-6.800781 4.800781h-16.398438c-3 0-5.800781-2-6.800781-4.800781zm0 0"/><path d="m112.398438 361.398438c-1 0-2 0-3-.199219-2.597657-.398438-4.398438-2.597657-4.199219-5.199219 0-.601562 0-1.199219 0-2v-23.398438c0-.601562 0-1.402343 0-2-.199219-2.601562 1.601562-4.800781 4.199219-5.203124 10.402343-1.597657 20.203124 5.402343 22 15.800781 1.601562 10.402343-5.398438 20.199219-15.796876 22-1.203124.199219-2.203124.199219-3.203124.199219zm2.800781-27.796876v17.398438c4.800781-1.601562 7.402343-6.800781 5.800781-11.601562-.800781-2.597657-3-4.796876-5.800781-5.796876zm0 0"/><path d="m40.199219 361.398438c-10.597657 0-19.199219-8.597657-19.199219-19.199219 0-10.597657 8.601562-19.199219 19.199219-19.199219 1 0 2 0 3 .199219 2.601562.402343 4.402343 2.601562 4.199219 5.199219v2 23.601562 2c.203124 2.601562-1.597657 4.800781-4.199219 5.199219-.800781.199219-1.800781.199219-3 .199219zm-2.800781-27.796876c-4.796876 1.597657-7.398438 6.796876-5.796876 11.597657 1 2.800781 3 5 5.796876 5.800781zm0 0"/><path d="m76.398438 392.800781c-21.398438 0-38.796876-17.402343-38.796876-38.800781v-27.199219c0-3.800781 3-6.800781 6.796876-6.800781.402343 0 1 0 1.402343.199219 6 1.199219 21.398438 2.800781 31.800781-10.199219 2.398438-3 6.597657-3.398438 9.597657-1.199219.199219.199219.402343.398438.601562.398438 2.199219 2 8.398438 7 21 7.402343 3.597657.199219 6.597657 3 6.597657 6.597657v30.800781c-.199219 21.398438-17.597657 38.800781-39 38.800781zm-29-62.199219v23.398438c0 16 13 28.800781 28.800781 28.800781s29-12.800781 29-28.800781v-27.601562c-8-.398438-15.597657-3.199219-22-7.796876-12 12.597657-27.597657 12.796876-35.800781 12zm38-14.601562"/><path d="m122.199219 337.199219c-1.199219 0-2.597657-.597657-3.398438-1.398438-1.601562-1.601562-4-2.601562-6.402343-2.601562-.398438 0-1 0-1.398438.199219-2.800781.402343-5.199219-1.398438-5.800781-4.199219 0-.199219 0-.597657 0-.800781v-2c-8-.398438-15.597657-3.199219-22-7.796876-12.199219 13-28 13-36.199219 12-1 2-3.199219 3.199219-5.398438 2.796876-2.601562-.398438-5.203124.203124-7.203124 1.800781-2.199219 1.800781-5.398438 1.402343-7-.800781-.796876-.796876-1-2-1-3.199219v-15.597657c0-22 17.800781-40 40-40h10c7 0 13.601562 3 18.203124 8.199219 2.597657-1 5.398438-1.402343 8.398438-1.402343 13.398438 0 24.398438 11 24.398438 24.402343v25.398438c-.199219 2.800781-2.398438 5-5.199219 5zm-7-13.800781c.601562 0 1.402343.203124 2 .402343v-17c0-7.800781-6.398438-14.402343-14.199219-14.402343-2.601562 0-5.199219.601562-7.398438 2-2.402343 1.402343-5.402343.601562-6.800781-1.796876-2.601562-4.402343-7.199219-7-12.402343-7h-10c-16.597657 0-30 13.398438-30 30v8c.601562-.203124 1.203124-.203124 2-.203124 1.402343-2.597657 4.402343-3.796876 7.203124-3.199219 6 1.199219 21.398438 2.800781 31.796876-10.199219 2.402343-3 6.601562-3.398438 9.601562-1.199219.199219.199219.398438.398438.601562.398438 2.199219 2 8.398438 7 21 7.402343 3.597657.199219 6.597657 3 6.597657 6.597657zm0 0"/><path d="m76.800781 437.199219c-1.402343 0-2.601562-.597657-3.601562-1.398438-.199219-.199219-.398438-.402343-.597657-.800781-.203124-.199219-.402343-.601562-.402343-.800781-.199219-.199219-.199219-.597657-.199219-1 0-.398438 0-.597657 0-1 0-.398438 0-.597657 0-1 .199219-.597657.398438-1.199219.800781-1.800781.199219-.199219.398438-.597657.597657-.796876 2-1.800781 5-1.800781 7 0 .203124.199219.402343.398438.601562.796876.199219.203124.398438.601562.398438.800781.203124.402343.203124.601562.203124 1v1 1c0 .402343-.203124.601562-.203124 1-.199219.402343-.199219.601562-.398438.800781s-.398438.601562-.601562.800781c-1 1-2.199219 1.398438-3.597657 1.398438zm0 0"/><path d="m76.800781 455.398438c-1.402343 0-2.601562-.597657-3.601562-1.398438-2-2-2-5.199219 0-7s5-1.800781 7 0c2 2 2 5.199219 0 7-.800781.800781-2 1.398438-3.398438 1.398438zm0 0"/><path d="m76.800781 473.398438c-1.402343 0-2.601562-.597657-3.601562-1.398438-.199219-.199219-.398438-.398438-.597657-.800781-.402343-.597657-.601562-1.199219-.800781-1.800781-.199219-.597657-.199219-1.398438 0-2 0-.398438.199219-.597657.199219-1 .199219-.398438.199219-.597657.398438-.796876.203124-.203124.402343-.601562.601562-.800781 2-1.800781 5-1.800781 7 0 .199219.199219.398438.398438.601562.800781.199219.199219.398438.597657.398438.796876.199219.203124.199219.601562.199219 1 .199219.601562.199219 1.402343 0 2 0 .402343-.199219.601562-.199219 1-.199219.402343-.199219.601562-.398438.800781-.203124.199219-.402343.601562-.601562.800781-.601562.800781-1.800781 1.398438-3.199219 1.398438zm0 0"/><path d="m76.800781 491.601562c-2.800781 0-5-2.203124-5-5 0-.402343 0-.601562 0-1 .199219-.601562.398438-1.203124.800781-1.800781.199219-.199219.398438-.601562.597657-.800781 2-1.800781 5-1.800781 7 0 2 2 2 5.199219 0 7-.800781 1-2 1.601562-3.398438 1.601562zm0 0"/><path d="m116.398438 506.398438c-2.796876 0-5-2.199219-5-5v-51c0-2.796876 2.203124-5 5-5 2.800781 0 5 2.203124 5 5v51c0 2.800781-2.199219 5-5 5zm0 0"/><path d="m36.199219 506.398438c-2.800781 0-5-2.199219-5-5v-51c0-2.796876 2.199219-5 5-5s5 2.203124 5 5v51c0 2.800781-2.199219 5-5 5zm0 0"/><path d="m85 418.601562h-16.398438c-3 0-5.800781-2-6.800781-4.800781l-5.402343-15.402343c-.199219-.597657-.199219-1-.199219-1.597657v-12.601562c0-2.800781 2.199219-5 5-5 .800781 0 1.601562.199219 2.199219.601562 4 2 8.402343 3 12.800781 3 4.800781 0 9.402343-1.199219 13.800781-3.402343 2.398438-1.398438 5.398438-.398438 6.800781 2 .398438.800781.597657 1.601562.597657 2.402343v13c0 .597657 0 1.199219-.199219 1.597657l-5.398438 15.402343c-1 2.800781-3.800781 4.800781-6.800781 4.800781zm-14.398438-10h12.398438l4.398438-12.601562v-4.800781c-7 2-14.199219 2.199219-21.199219.199219v4.402343zm0 0"/><path d="m135.199219 512h-116.800781c-10.199219 0-18.398438-8.199219-18.398438-18.398438 0-.402343 0-.601562 0-1l3.800781-69.402343c.398438-8 6-14.800781 13.800781-16.800781l25.796876-6.398438 15.402343-7.601562c2.398438-1.199219 5.398438-.199219 6.597657 2.203124 0 .199219.203124.398438.203124.597657l4.597657 13.402343h12.402343l4.597657-13.402343c1-2.597657 3.800781-4 6.402343-3 .199219 0 .398438.199219.597657.199219l15.402343 7.601562 25.796876 6.398438c7.800781 2 13.402343 8.800781 13.800781 16.800781l3.800781 69.402343c.601562 10.199219-7.199219 18.796876-17.398438 19.398438.199219 0-.203124 0-.402343 0zm-76.800781-108.199219-10.796876 5.398438c-.402343.199219-.601562.199219-1 .402343l-26.203124 6.398438c-3.597657.800781-6.199219 4-6.398438 7.601562l-3.800781 69.597657c-.199219 4.601562 3.199219 8.601562 7.800781 8.800781h.398438 116.601562c4.601562 0 8.398438-3.800781 8.398438-8.398438 0-.203124 0-.402343 0-.402343l-3.796876-69.398438c-.203124-3.601562-2.800781-6.800781-6.402343-7.601562l-26.398438-6.597657c-.402343 0-.601562-.203124-1-.402343l-10.800781-5.398438-3.398438 10c-1 3-3.800781 4.800781-6.800781 4.800781h-16.402343c-3 0-5.796876-2-6.796876-4.800781zm0 0"/></g><path d="m330.800781 14c-7-1.398438-12.402343-6.800781-13.800781-13.800781 0-.199219-.199219-.199219-.398438-.199219-.203124 0-.203124.199219-.203124.199219-1.398438 7-6.796876 12.402343-13.796876 13.800781-.203124 0-.203124.199219-.203124.398438 0 .203124.203124.203124.203124.203124 7 1.398438 12.398438 6.796876 13.796876 13.796876 0 .203124.203124.203124.402343.203124s.199219-.203124.199219-.203124c1.398438-7 6.800781-12.398438 13.800781-13.796876.199219 0 .199219-.203124.199219-.402343 0 0-.199219-.199219-.199219-.199219zm0 0" fill="#55acd5"/></svg>