<?xml version="1.0" encoding="iso-8859-1"?>
<!-- Generator: Adobe Illustrator 19.0.0, SVG Export Plug-In . SVG Version: 6.00 Build 0)  -->
<svg version="1.1" id="Capa_1" xmlns="http://www.w3.org/2000/svg" xmlns:xlink="http://www.w3.org/1999/xlink" x="0px" y="0px"
	 viewBox="0 0 512 512" style="enable-background:new 0 0 512 512;" xml:space="preserve">
<g>
	<rect x="226" y="246" style="fill:#B1FFFF;" width="60" height="20"/>
	<rect x="38" y="366" style="fill:#B1FFFF;" width="60" height="20"/>
</g>
<g>
	<path style="fill:#304FFE;" d="M264,8h-16v200h-60v96h60v200h16V304h60v-96h-60V8z M308,288H204v-64h104V288z"/>
	<path style="fill:#304FFE;" d="M76,8H60v320H0v96h60v80h16v-80h60v-96H76V8z M120,408H16v-64h104V408z"/>
	<path style="fill:#304FFE;" d="M512,88h-60V8h-16v80h-60v96h60v320h16V184h60V88z M496,168H392v-64h104V168z"/>
</g>
<rect x="414" y="126" style="fill:#B1FFFF;" width="60" height="20"/>
<g>
</g>
<g>
</g>
<g>
</g>
<g>
</g>
<g>
</g>
<g>
</g>
<g>
</g>
<g>
</g>
<g>
</g>
<g>
</g>
<g>
</g>
<g>
</g>
<g>
</g>
<g>
</g>
<g>
</g>
</svg>
