<svg width="124" height="124" xmlns="http://www.w3.org/2000/svg">

 <g>
  <title>background</title>
  <rect fill="none" id="canvas_background" height="402" width="582" y="-1" x="-1"/>
 </g>
 <g>
  <title>Layer 1</title>
  <path fill="#ffffff" id="svg_2" d="m112,6l-100,0c-6.6,0 -12,5.4 -12,12s5.4,12 12,12l100,0c6.6,0 12,-5.4 12,-12s-5.4,-12 -12,-12z"/>
  <path fill="#ffffff" id="svg_3" d="m112,50l-100,0c-6.6,0 -12,5.4 -12,12c0,6.6 5.4,12 12,12l100,0c6.6,0 12,-5.4 12,-12c0,-6.6 -5.4,-12 -12,-12z"/>
  <path fill="#ffffff" id="svg_4" d="m112,94l-100,0c-6.6,0 -12,5.4 -12,12s5.4,12 12,12l100,0c6.6,0 12,-5.4 12,-12s-5.4,-12 -12,-12z"/>
 </g>
</svg>