<svg width="58" height="52" viewBox="0 0 58 52" fill="none" xmlns="http://www.w3.org/2000/svg">
<path d="M42.6852 33.972L37.0942 32.0259C36.8937 31.9561 36.6771 31.9464 36.4712 31.9981C36.2652 32.0498 36.0789 32.1607 35.9352 32.317C34.7094 33.7359 33.1996 34.882 31.5033 35.681C29.8069 36.4801 27.9618 36.9144 26.0872 36.9559C24.2126 36.9144 22.3675 36.4801 20.6711 35.681C18.9748 34.882 17.465 33.7359 16.2392 32.317C16.0952 32.1611 15.9089 32.0505 15.703 31.9988C15.4972 31.9472 15.2808 31.9566 15.0802 32.0259L9.4892 33.972C6.71923 34.9369 4.31788 36.7393 2.61775 39.1296C0.917627 41.5199 0.00287563 44.3797 0.000198364 47.313L0.000198364 48.9129C0.000198364 49.2012 0.114721 49.4777 0.318573 49.6816C0.522425 49.8854 0.798908 49.9999 1.0872 49.9999H51.0872C51.2299 49.9999 51.3713 49.9718 51.5032 49.9172C51.6351 49.8626 51.7549 49.7825 51.8558 49.6816C51.9568 49.5807 52.0368 49.4608 52.0915 49.3289C52.1461 49.197 52.1742 49.0557 52.1742 48.9129V47.313C52.1721 44.3796 51.2576 41.5195 49.5574 39.1291C47.8572 36.7387 45.4555 34.9364 42.6852 33.972ZM50.0002 47.826H2.1742V47.313C2.17622 44.8313 2.94977 42.4117 4.38773 40.3891C5.8257 38.3665 7.85694 36.8411 10.2002 36.024L15.1302 34.309C16.5421 35.8027 18.2386 36.9988 20.1199 37.827C22.0011 38.6551 24.029 39.0985 26.0842 39.131C28.1396 39.0993 30.1679 38.6568 32.0496 37.8293C33.9314 37.0019 35.6286 35.8063 37.0412 34.313L41.9712 36.028C44.3144 36.8444 46.3458 38.369 47.7843 40.3908C49.2228 42.4126 49.9971 44.8316 50.0002 47.313V47.826Z" fill="url(#paint0_linear)"/>
<path d="M39.1242 13.326C39.1242 13.233 39.1312 13.137 39.1312 13.043C39.1312 9.58366 37.757 6.266 35.3109 3.81986C32.8647 1.37373 29.5471 -0.000488281 26.0877 -0.000488281C22.6283 -0.000488281 19.3107 1.37373 16.8646 3.81986C14.4184 6.266 13.0442 9.58366 13.0442 13.043C13.0442 13.136 13.0442 13.232 13.0512 13.326C11.7512 14.035 10.8712 16.015 10.8712 18.478C10.8712 21.502 12.2062 23.8 13.9972 23.908C15.9732 30.456 20.7322 34.782 26.0882 34.782C31.4442 34.782 36.2032 30.457 38.1792 23.909C39.9702 23.8 41.3052 21.502 41.3052 18.479C41.3032 16.015 40.4202 14.033 39.1242 13.326ZM37.9762 21.691C37.8308 21.6009 37.6661 21.5464 37.4956 21.532C37.3251 21.5175 37.1536 21.5436 36.9951 21.6081C36.8366 21.6725 36.6956 21.7735 36.5835 21.9027C36.4714 22.032 36.3915 22.186 36.3502 22.352C34.8282 28.487 30.7042 32.609 26.0872 32.609C21.4702 32.609 17.3462 28.487 15.8242 22.352C15.7752 22.1874 15.6884 22.0365 15.5707 21.9115C15.4529 21.7865 15.3076 21.6908 15.1462 21.632C15.0246 21.5828 14.8944 21.5584 14.7632 21.56C14.5398 21.56 14.3208 21.6216 14.1302 21.738C13.8582 21.738 13.0432 20.582 13.0432 18.477C13.0432 16.483 13.7762 15.342 14.0822 15.225C14.0932 15.2259 14.1042 15.2259 14.1152 15.225C14.2754 15.2385 14.4367 15.2176 14.5881 15.1636C14.7396 15.1096 14.8777 15.0238 14.9932 14.912C15.107 14.7975 15.194 14.6592 15.2478 14.507C15.3015 14.3548 15.3208 14.1926 15.3042 14.032L15.2742 13.76C15.242 13.5206 15.223 13.2795 15.2172 13.038C15.2447 10.1733 16.402 7.43526 18.4374 5.41925C20.4728 3.40323 23.2219 2.27227 26.0867 2.27227C28.9515 2.27227 31.7006 3.40323 33.736 5.41925C35.7715 7.43526 36.9287 10.1733 36.9562 13.038C36.9506 13.2789 36.9315 13.5193 36.8992 13.758L36.8692 14.03C36.8527 14.1906 36.8721 14.3528 36.9258 14.5049C36.9796 14.6571 37.0665 14.7955 37.1802 14.91C37.295 15.023 37.433 15.1096 37.5846 15.164C37.7362 15.2184 37.8978 15.2392 38.0582 15.225H38.0912C38.3982 15.342 39.1302 16.484 39.1302 18.477C39.1312 20.583 38.3332 21.739 37.9762 21.691Z" fill="url(#paint1_linear)"/>
<path d="M26.0872 8.69603C25.5091 8.6691 24.9317 8.76314 24.392 8.97212C23.8523 9.1811 23.3621 9.50042 22.9529 9.90967C22.5436 10.3189 22.2243 10.8091 22.0153 11.3488C21.8063 11.8885 21.7123 12.4659 21.7392 13.044C21.7392 13.3323 21.8537 13.6088 22.0576 13.8127C22.2614 14.0165 22.5379 14.131 22.8262 14.131C23.1145 14.131 23.391 14.0165 23.5948 13.8127C23.7987 13.6088 23.9132 13.3323 23.9132 13.044C23.9132 12.4675 24.1423 11.9145 24.55 11.5068C24.9577 11.0991 25.5106 10.87 26.0872 10.87C26.6638 10.87 27.2167 11.0991 27.6245 11.5068C28.0322 11.9145 28.2612 12.4675 28.2612 13.044C28.2612 14.868 27.8612 15.7 26.6072 16.464C24.1902 17.942 23.7852 19.897 23.9272 20.818C23.9669 21.071 24.0964 21.3013 24.2919 21.4665C24.4875 21.6318 24.7361 21.7211 24.9922 21.718C25.0362 21.718 25.0812 21.718 25.1272 21.709C25.4086 21.672 25.6649 21.5276 25.8423 21.306C26.0197 21.0844 26.1046 20.8028 26.0792 20.52C26.0792 20.474 26.0072 19.377 27.7422 18.32C29.6552 17.15 30.4352 15.62 30.4352 13.044C30.4621 12.4659 30.3681 11.8885 30.1591 11.3488C29.9501 10.8091 29.6308 10.3189 29.2216 9.90967C28.8123 9.50042 28.3222 9.1811 27.7824 8.97212C27.2427 8.76314 26.6653 8.6691 26.0872 8.69603Z" fill="url(#paint2_linear)"/>
<path d="M25.0002 26.087C25.6005 26.087 26.0872 25.6003 26.0872 25C26.0872 24.3996 25.6005 23.913 25.0002 23.913C24.3999 23.913 23.9132 24.3996 23.9132 25C23.9132 25.6003 24.3999 26.087 25.0002 26.087Z" fill="url(#paint3_linear)"/>
<path opacity="0.2" d="M47.6852 35.972L42.0942 34.0259C41.8937 33.9561 41.6771 33.9464 41.4712 33.9981C41.2652 34.0498 41.0789 34.1607 40.9352 34.317C40.7182 34.553 40.4972 34.781 40.0502 35.217C37.6609 37.5791 34.4478 38.9214 31.0882 38.9609C29.2136 38.9194 27.3685 38.4851 25.6721 37.686C23.9758 36.887 22.466 35.7409 21.2402 34.322C21.0962 34.1661 20.9099 34.0555 20.704 34.0039C20.4982 33.9522 20.2818 33.9616 20.0812 34.031L14.4902 35.977C11.7208 36.9415 9.31985 38.7431 7.61961 41.1324C5.91936 43.5217 5.00398 46.3805 5.0002 49.313L5.0002 50.9129C5.0002 51.2012 5.11472 51.4777 5.31857 51.6816C5.52243 51.8854 5.79891 51.9999 6.0872 51.9999H56.0872C56.2299 51.9999 56.3713 51.9718 56.5032 51.9172C56.6351 51.8626 56.7549 51.7825 56.8558 51.6816C56.9568 51.5807 57.0368 51.4608 57.0915 51.3289C57.1461 51.197 57.1742 51.0557 57.1742 50.9129V49.313C57.1721 46.3796 56.2576 43.5195 54.5574 41.1291C52.8572 38.7387 50.4555 36.9364 47.6852 35.972Z" fill="#007FFF"/>
<path opacity="0.2" d="M44.1242 15.326C44.1242 15.233 44.1312 15.137 44.1312 15.043C44.1312 11.5837 42.757 8.266 40.3109 5.81986C37.8647 3.37373 34.5471 1.99951 31.0877 1.99951C27.6283 1.99951 24.3107 3.37373 21.8646 5.81986C19.4184 8.266 18.0442 11.5837 18.0442 15.043C18.0442 15.136 18.0442 15.232 18.0512 15.326C16.7512 16.035 15.8712 18.015 15.8712 20.478C15.8712 23.502 17.2062 25.8 18.9972 25.908C20.9732 32.456 25.7322 36.782 31.0882 36.782C36.4442 36.782 41.2032 32.457 43.1792 25.909C44.9702 25.8 46.3052 23.502 46.3052 20.479C46.3032 18.015 45.4202 16.033 44.1242 15.326Z" fill="#007FFF"/>
<defs>
<linearGradient id="paint0_linear" x1="26.0872" y1="31.9653" x2="26.0872" y2="31.9653" gradientUnits="userSpaceOnUse">
<stop stop-color="#3508AA"/>
<stop offset="1" stop-color="#39107F"/>
</linearGradient>
<linearGradient id="paint1_linear" x1="26.0882" y1="-0.000488281" x2="26.0882" y2="-0.000488281" gradientUnits="userSpaceOnUse">
<stop stop-color="#3508AA"/>
<stop offset="1" stop-color="#39107F"/>
</linearGradient>
<linearGradient id="paint2_linear" x1="26.0872" y1="8.69153" x2="26.0872" y2="8.69153" gradientUnits="userSpaceOnUse">
<stop stop-color="#3508AA"/>
<stop offset="1" stop-color="#39107F"/>
</linearGradient>
<linearGradient id="paint3_linear" x1="25.0002" y1="23.913" x2="25.0002" y2="23.913" gradientUnits="userSpaceOnUse">
<stop stop-color="#3508AA"/>
<stop offset="1" stop-color="#39107F"/>
</linearGradient>
</defs>
</svg>
