<svg width="44" height="52" viewBox="0 0 44 52" fill="none" xmlns="http://www.w3.org/2000/svg">
<path d="M38.4402 10.123L19.6462 0.109974C19.5091 0.0366961 19.3559 -0.00122456 19.2005 -0.000351469C19.0451 0.000521621 18.8924 0.0401608 18.7562 0.114974L0.486168 10.129C0.338988 10.2097 0.216216 10.3285 0.130712 10.4729C0.0452083 10.6173 0.000119282 10.7821 0.000167886 10.95V24.03C0.00562443 29.292 1.54385 34.4385 4.42686 38.8404C7.30987 43.2423 11.4128 46.7091 16.2342 48.817L18.7702 49.922C18.8876 49.9729 19.0142 49.9992 19.1422 49.9992C19.2701 49.9992 19.3968 49.9729 19.5142 49.922L22.3722 48.688C27.2799 46.6269 31.4698 43.1628 34.4165 38.7299C37.3632 34.2971 38.9355 29.0929 38.9362 23.77V10.949C38.9358 10.7789 38.889 10.6121 38.8009 10.4665C38.7128 10.321 38.5867 10.2022 38.4362 10.123H38.4402ZM37.0652 23.77C37.0647 28.7263 35.6006 33.5722 32.8564 37.6995C30.1123 41.8269 26.2103 45.0519 21.6402 46.97H21.6342L19.1462 48.045L16.9832 47.1C12.4954 45.1381 8.67624 41.9114 5.99251 37.8143C3.30877 33.7171 1.87665 28.9269 1.87117 24.029V11.5L19.2142 1.99997L37.0642 11.512L37.0652 23.77Z" fill="url(#paint0_linear)"/>
<path d="M12.3122 23.423C12.1486 23.2428 11.9214 23.1334 11.6785 23.1179C11.4357 23.1025 11.1964 23.1822 11.0113 23.3402C10.8263 23.4982 10.7101 23.7221 10.6872 23.9643C10.6644 24.2066 10.7369 24.4482 10.8892 24.638L15.8312 30.425C15.9897 30.6103 16.2143 30.7263 16.4572 30.7484C16.7 30.7704 16.9419 30.6967 17.1312 30.543L28.6412 21.179C28.7413 21.1031 28.8252 21.0078 28.8877 20.8988C28.9502 20.7898 28.9902 20.6694 29.0052 20.5446C29.0202 20.4199 29.0099 20.2934 28.9749 20.1727C28.94 20.052 28.8811 19.9395 28.8018 19.8421C28.7225 19.7446 28.6244 19.6642 28.5133 19.6054C28.4022 19.5467 28.2804 19.511 28.1552 19.5003C28.03 19.4897 27.9039 19.5043 27.7845 19.5434C27.6651 19.5825 27.5548 19.6453 27.4602 19.7279L16.6602 28.515L12.3122 23.423Z" fill="url(#paint1_linear)"/>
<path opacity="0.2" d="M43.4402 12.123L24.6462 2.10997C24.5091 2.0367 24.3559 1.99878 24.2005 1.99965C24.0451 2.00052 23.8924 2.04016 23.7562 2.11497L5.48617 12.129C5.33899 12.2097 5.21622 12.3285 5.13071 12.4729C5.04521 12.6173 5.00012 12.7821 5.00017 12.95V26.03C5.00562 31.292 6.54385 36.4385 9.42686 40.8404C12.3099 45.2423 16.4128 48.7091 21.2342 50.817L23.7702 51.922C23.8876 51.9729 24.0142 51.9992 24.1422 51.9992C24.2701 51.9992 24.3968 51.9729 24.5142 51.922L27.3722 50.688C32.2799 48.6269 36.4698 45.1628 39.4165 40.7299C42.3632 36.2971 43.9355 31.0929 43.9362 25.77V12.949C43.9358 12.7789 43.889 12.6121 43.8009 12.4665C43.7128 12.321 43.5867 12.2022 43.4362 12.123H43.4402Z" fill="#007FFF"/>
<defs>
<linearGradient id="paint0_linear" x1="19.4682" y1="-0.000366211" x2="19.4682" y2="-0.000366211" gradientUnits="userSpaceOnUse">
<stop stop-color="#3508AA"/>
<stop offset="1" stop-color="#39107F"/>
</linearGradient>
<linearGradient id="paint1_linear" x1="19.8475" y1="19.4969" x2="19.8475" y2="19.4969" gradientUnits="userSpaceOnUse">
<stop stop-color="#3508AA"/>
<stop offset="1" stop-color="#39107F"/>
</linearGradient>
</defs>
</svg>
