<svg width="62" height="53" viewBox="0 0 62 53" fill="none" xmlns="http://www.w3.org/2000/svg">
<path d="M56.8542 35.708C56.6607 35.003 56.2666 34.3694 55.7199 33.884C55.1731 33.3987 54.4972 33.0826 53.7742 32.974V11.321H55.6602C55.9103 11.321 56.1502 11.2217 56.327 11.0448C56.5038 10.868 56.6032 10.6281 56.6032 10.378V0.944023C56.6035 0.820019 56.5793 0.69718 56.532 0.582539C56.4847 0.467898 56.4153 0.363706 56.3277 0.275928C56.2401 0.188151 56.1361 0.118511 56.0215 0.0709959C55.907 0.0234807 55.7842 -0.000976841 55.6602 -0.000976562H14.1512C13.9011 -0.000976562 13.6612 0.0983749 13.4844 0.275222C13.3076 0.452069 13.2082 0.691924 13.2082 0.942023V10.376C13.2082 10.6261 13.3076 10.866 13.4844 11.0428C13.6612 11.2197 13.9011 11.319 14.1512 11.319H16.0382V30.189H15.0952C12.7549 30.1842 10.4631 30.8555 8.4952 32.122V27.359C8.4952 27.1089 8.39585 26.8691 8.219 26.6922C8.04215 26.5154 7.8023 26.416 7.5522 26.416H0.943198C0.693099 26.416 0.453243 26.5154 0.276397 26.6922C0.0995499 26.8691 0.000198364 27.1089 0.000198364 27.359L0.000198364 49.059C0.000198364 49.3091 0.0995499 49.549 0.276397 49.7258C0.453243 49.9027 0.693099 50.002 0.943198 50.002H7.5432C7.7933 50.002 8.03315 49.9027 8.21 49.7258C8.38685 49.549 8.4862 49.3091 8.4862 49.059V44.299C10.4545 45.5646 12.7461 46.2354 15.0862 46.231H30.5762C31.6492 46.2292 32.7174 46.0883 33.7542 45.812L54.1792 40.34C55.1448 40.077 55.9671 39.4425 56.4664 38.5752C56.9658 37.7079 57.1016 36.6782 56.8442 35.711L56.8542 35.708ZM15.0942 1.88702H54.7172V9.43402H15.0942V1.88702ZM17.9242 11.321H51.8872V33.136L40.9382 36.072C40.7153 35.5409 40.3743 35.0676 39.9411 34.688C39.5079 34.3083 38.9939 34.0324 38.4382 33.881L25.7312 30.472C25.0155 30.2834 24.2783 30.1883 23.5382 30.189H17.9242V11.321ZM6.6002 48.114H1.8872V28.299H6.6002V48.114ZM53.7002 38.514L33.2772 43.985C32.399 44.2194 31.4941 44.3387 30.5852 44.34H15.0942C12.8477 44.3452 10.6611 43.6162 8.8672 42.264L8.4902 41.981V34.434L8.8672 34.151C10.661 32.7988 12.8478 32.0701 15.0942 32.076H23.5382C24.1151 32.0758 24.6895 32.1504 25.2472 32.298L37.9542 35.699C38.3222 35.8001 38.6512 36.0097 38.8984 36.3004C39.1457 36.5911 39.2996 36.9496 39.3402 37.329C39.3504 37.3678 39.3631 37.4059 39.3782 37.443C39.3671 37.4834 39.3587 37.5245 39.3532 37.566C39.3543 37.7195 39.3334 37.8724 39.2912 38.02C39.1841 38.4209 38.9479 38.7753 38.619 39.0284C38.2902 39.2815 37.8871 39.4191 37.4722 39.42C37.3062 39.4214 37.1407 39.4006 36.9802 39.358L28.9612 37.199C28.8416 37.1669 28.7168 37.1587 28.594 37.1748C28.4711 37.1909 28.3527 37.2311 28.2454 37.293C28.1381 37.3549 28.0441 37.4373 27.9686 37.5355C27.8932 37.6338 27.8378 37.7459 27.8057 37.8655C27.7736 37.9852 27.7654 38.1099 27.7815 38.2328C27.7976 38.3556 27.8377 38.474 27.8996 38.5813C27.9615 38.6886 28.0439 38.7827 28.1422 38.8581C28.2404 38.9336 28.3526 38.9889 28.4722 39.021L36.4912 41.172C36.8117 41.2563 37.1418 41.2986 37.4732 41.298C38.2973 41.2969 39.0983 41.0256 39.7534 40.5256C40.4086 40.0256 40.8816 39.3246 41.1002 38.53C41.1526 38.3408 41.1884 38.1474 41.2072 37.952L52.7072 34.868C52.7892 34.847 52.8782 34.826 52.9622 34.812C53.4169 34.7522 53.8777 34.86 54.2587 35.1153C54.6396 35.3705 54.9146 35.7558 55.0322 36.199C55.0747 36.3585 55.0955 36.523 55.0942 36.688C55.0948 37.104 54.9578 37.5086 54.7046 37.8386C54.4514 38.1687 54.0962 38.4058 53.6942 38.513L53.7002 38.514Z" fill="url(#paint0_linear)"/>
<path d="M30.1882 15.095H39.6222C39.8725 15.095 40.1124 14.9956 40.2894 14.8187C40.4663 14.6417 40.5657 14.4017 40.5657 14.1515C40.5657 13.9013 40.4663 13.6613 40.2894 13.4844C40.1124 13.3074 39.8725 13.208 39.6222 13.208H30.1882C29.938 13.208 29.698 13.3074 29.5211 13.4844C29.3441 13.6613 29.2447 13.9013 29.2447 14.1515C29.2447 14.4017 29.3441 14.6417 29.5211 14.8187C29.698 14.9956 29.938 15.095 30.1882 15.095Z" fill="url(#paint1_linear)"/>
<path opacity="0.2" d="M61.8542 37.708C61.6607 37.003 61.2666 36.3694 60.7199 35.884C60.1731 35.3987 59.4972 35.0826 58.7742 34.974V13.321H60.6602C60.9103 13.321 61.1502 13.2217 61.327 13.0448C61.5038 12.868 61.6032 12.6281 61.6032 12.378V2.94402C61.6035 2.82002 61.5793 2.69718 61.532 2.58254C61.4847 2.4679 61.4153 2.36371 61.3277 2.27593C61.2401 2.18815 61.1361 2.11851 61.0215 2.071C60.907 2.02348 60.7842 1.99902 60.6602 1.99902H19.1512C18.9011 1.99902 18.6612 2.09837 18.4844 2.27522C18.3076 2.45207 18.2082 2.69192 18.2082 2.94202V12.376C18.2082 12.6261 18.3076 12.866 18.4844 13.0428C18.6612 13.2197 18.9011 13.319 19.1512 13.319H21.0382V32.189H20.0952C17.7549 32.1842 15.4631 32.8555 13.4952 34.122V29.359C13.4952 29.1089 13.3958 28.8691 13.219 28.6922C13.0422 28.5154 12.8023 28.416 12.5522 28.416H5.9432C5.6931 28.416 5.45324 28.5154 5.2764 28.6922C5.09955 28.8691 5.0002 29.1089 5.0002 29.359V51.059C5.0002 51.3091 5.09955 51.549 5.2764 51.7258C5.45324 51.9027 5.6931 52.002 5.9432 52.002H12.5432C12.7933 52.002 13.0332 51.9027 13.21 51.7258C13.3868 51.549 13.4862 51.3091 13.4862 51.059V46.299C15.4545 47.5646 17.7461 48.2354 20.0862 48.231H35.5762C36.6492 48.2292 37.7174 48.0883 38.7542 47.812L59.1792 42.34C60.1448 42.077 60.9671 41.4425 61.4664 40.5752C61.9658 39.7079 62.1016 38.6782 61.8442 37.711L61.8542 37.708Z" fill="#007FFF"/>
<defs>
<linearGradient id="paint0_linear" x1="28.4859" y1="-0.000976562" x2="28.4859" y2="-0.000976562" gradientUnits="userSpaceOnUse">
<stop stop-color="#3508AA"/>
<stop offset="1" stop-color="#39107F"/>
</linearGradient>
<linearGradient id="paint1_linear" x1="34.9052" y1="13.208" x2="34.9052" y2="13.208" gradientUnits="userSpaceOnUse">
<stop stop-color="#3508AA"/>
<stop offset="1" stop-color="#39107F"/>
</linearGradient>
</defs>
</svg>
