<svg width="52" height="53" viewBox="0 0 52 53" fill="none" xmlns="http://www.w3.org/2000/svg">
<path d="M51.8152 10.002H37.9442C38.8546 8.69834 39.2438 7.10093 39.0349 5.52458C38.8261 3.94822 38.0344 2.50725 36.8159 1.48561C35.5974 0.463977 34.0404 -0.0642317 32.4518 0.00507277C30.8632 0.0743773 29.3581 0.736169 28.2332 1.86004L25.6612 4.43204L23.0902 1.86104C21.9652 0.738187 20.4605 0.0772284 18.8725 0.00830942C17.2845 -0.0606096 15.7282 0.467506 14.5101 1.48867C13.292 2.50983 12.5004 3.95003 12.2911 5.52569C12.0818 7.10135 12.4699 8.69828 13.3792 10.002H0.000198364V22.729H4.5452V50.002H48.1792V22.729H51.8152V10.002ZM29.5152 3.14504C30.3676 2.29263 31.5237 1.81376 32.7292 1.81376C33.9347 1.81376 35.0908 2.29263 35.9432 3.14504C36.7956 3.99745 37.2745 5.15355 37.2745 6.35904C37.2745 7.56452 36.7956 8.72063 35.9432 9.57304L35.5172 10.002H22.6612L26.9462 5.71704L29.5152 3.14504ZM15.3772 9.57404C14.5604 8.71508 14.1115 7.57103 14.1262 6.38583C14.1409 5.20063 14.618 4.06806 15.4558 3.22961C16.2936 2.39115 17.4258 1.91316 18.611 1.89755C19.7962 1.88194 20.9406 2.32994 21.8002 3.14604L24.3712 5.71804L21.1622 8.93104C20.9712 9.12654 20.7947 9.33577 20.6342 9.55704C20.5852 9.62304 20.5342 9.69504 20.4892 9.76504C20.4442 9.83504 20.3772 9.91704 20.3252 10.001H15.8052L15.3772 9.57404ZM1.8182 20.911V11.821H25.4532V20.911H1.8182ZM25.4532 22.729V33.638H6.3632V22.729H25.4532ZM6.3632 35.456H25.4532V48.182H6.3632V35.456ZM27.2712 48.182V35.456H46.3602V48.182H27.2712ZM46.3602 33.638H27.2712V22.729H46.3602V33.638ZM50.0002 20.911H27.2712V11.821H50.0002V20.911Z" fill="url(#paint0_linear)"/>
<path opacity="0.2" d="M51.8152 12.002H37.9442C38.8546 10.6983 39.2438 9.10093 39.0349 7.52458C38.8261 5.94822 38.0344 4.50725 36.8159 3.48561C35.5974 2.46398 34.0404 1.93577 32.4518 2.00507C30.8632 2.07438 29.3581 2.73617 28.2332 3.86004L25.6612 6.43204L23.0902 3.86104C21.9652 2.73819 20.4605 2.07723 18.8725 2.00831C17.2845 1.93939 15.7282 2.46751 14.5101 3.48867C13.292 4.50983 12.5004 5.95003 12.2911 7.52569C12.0818 9.10135 12.4699 10.6983 13.3792 12.002H0.000198364V24.729H4.5452V52.002H48.1792V24.729H51.8152V12.002Z" fill="#007FFF"/>
<defs>
<linearGradient id="paint0_linear" x1="25.9077" y1="-0.000976562" x2="25.9077" y2="-0.000976562" gradientUnits="userSpaceOnUse">
<stop stop-color="#3508AA"/>
<stop offset="1" stop-color="#39107F"/>
</linearGradient>
</defs>
</svg>
