<svg width="15" height="15" viewBox="0 0 15 15" fill="none" xmlns="http://www.w3.org/2000/svg">
<path d="M12.714 12.449C13.7337 11.4291 14.4282 10.1298 14.7094 8.71535C14.9907 7.30086 14.8463 5.83472 14.2944 4.50233C13.7424 3.16994 12.8078 2.03113 11.6086 1.22991C10.4095 0.428686 8.99969 0.0010376 7.55751 0.0010376C6.11532 0.0010376 4.70552 0.428686 3.50637 1.22991C2.30722 2.03113 1.37259 3.16994 0.820652 4.50233C0.268714 5.83472 0.124263 7.30086 0.405563 8.71535C0.686862 10.1298 1.38128 11.4291 2.40101 12.449C3.07814 13.1262 3.88204 13.6634 4.7668 14.0299C5.65155 14.3964 6.59984 14.585 7.55751 14.585C8.51517 14.585 9.46346 14.3964 10.3482 14.0299C11.233 13.6634 12.0369 13.1262 12.714 12.449ZM4.94301 6.17798L6.58301 7.81798L10.176 4.22898L11.446 5.49998L7.85701 9.08898L6.58301 10.36L5.31201 9.08898L3.67201 7.44898L4.94301 6.17798Z" fill="#00B04C"/>
</svg>
