<svg height="500pt" viewBox="-2 0 500 500" width="500pt" xmlns="http://www.w3.org/2000/svg"><path d="m282.800781 436.320312h-282.800781v-24.160156h274.480469c1.839843 8.480469 4.632812 16.558594 8.320312 24.160156zm0 0" fill="#e6e9ed"/><path d="m274.472656 412.160156h-274.472656v-24.160156h271.832031c0 8.320312.886719 16.398438 2.640625 24.160156zm0 0" fill="#e6e9ed"/><path d="m0 420.222656h386.257812v8h-386.257812zm0 0" fill="#ccd1d9"/><path d="m0 404.207031h386.257812v8h-386.257812zm0 0" fill="#ccd1d9"/><path d="m0 388.191406h386.257812v8h-386.257812zm0 0" fill="#ccd1d9"/><path d="m384 100v176c-.078125 0-.078125 0-.160156 0-11.046875 0-21.601563 1.601562-31.6875 4.558594v-20.558594h-32v32h5.839844c-20.640626 12.480469-36.878907 31.441406-46 54v-22h-32v32h28.480468c-3.03125 10.160156-4.640625 20.878906-4.640625 32h-271.832031v-288zm-32 128v-32h-32v32zm0-64v-32h-32v32zm-71.839844 128v-32h-32v32zm-.160156-64v-32h-32v32zm0-64v-32h-32v32zm-72 192v-32h-32v32zm0-64v-32h-32v32zm0-64v-32h-32v32zm0-64v-32h-32v32zm-72 192v-32h-32v32zm0-64v-32h-32v32zm0-64v-32h-32v32zm0-64v-32h-32v32zm-72 192v-32h-32v32zm0-64v-32h-32v32zm0-64v-32h-32v32zm0-64v-32h-32v32zm0 0" fill="#e6e9ed"/><g fill="#ccd1d9"><path d="m64 124.023438h-32c-4.425781 0-8 3.578124-8 8v32c0 4.425781 3.574219 8 8 8h32c4.425781 0 8-3.574219 8-8v-32c0-4.421876-3.574219-8-8-8zm0 0"/><path d="m136 124.023438h-32c-4.425781 0-8 3.578124-8 8v32c0 4.425781 3.574219 8 8 8h32c4.425781 0 8-3.574219 8-8v-32c0-4.421876-3.574219-8-8-8zm0 0"/><path d="m208 124.023438h-32c-4.425781 0-8 3.578124-8 8v32c0 4.425781 3.574219 8 8 8h32c4.425781 0 8-3.574219 8-8v-32c0-4.421876-3.574219-8-8-8zm0 0"/><path d="m248 172.023438h32c4.425781 0 8-3.574219 8-8v-32c0-4.421876-3.574219-8-8-8h-32c-4.425781 0-8 3.578124-8 8v32c0 4.425781 3.574219 8 8 8zm0 0"/><path d="m64 188.023438h-32c-4.425781 0-8 3.578124-8 8v32c0 4.425781 3.574219 8 8 8h32c4.425781 0 8-3.574219 8-8v-32c0-4.421876-3.574219-8-8-8zm0 0"/><path d="m136 188.023438h-32c-4.425781 0-8 3.578124-8 8v32c0 4.425781 3.574219 8 8 8h32c4.425781 0 8-3.574219 8-8v-32c0-4.421876-3.574219-8-8-8zm0 0"/><path d="m208 188.023438h-32c-4.425781 0-8 3.578124-8 8v32c0 4.425781 3.574219 8 8 8h32c4.425781 0 8-3.574219 8-8v-32c0-4.421876-3.574219-8-8-8zm0 0"/><path d="m64 252.023438h-32c-4.425781 0-8 3.578124-8 8v32c0 4.425781 3.574219 8 8 8h32c4.425781 0 8-3.574219 8-8v-32c0-4.421876-3.574219-8-8-8zm0 0"/><path d="m136 252.023438h-32c-4.425781 0-8 3.578124-8 8v32c0 4.425781 3.574219 8 8 8h32c4.425781 0 8-3.574219 8-8v-32c0-4.421876-3.574219-8-8-8zm0 0"/><path d="m208 252.023438h-32c-4.425781 0-8 3.578124-8 8v32c0 4.425781 3.574219 8 8 8h32c4.425781 0 8-3.574219 8-8v-32c0-4.421876-3.574219-8-8-8zm0 0"/><path d="m280.121094 252.023438h-32c-4.425782 0-8 3.578124-8 8v32c0 4.425781 3.574218 8 8 8h32c4.421875 0 8-3.574219 8-8v-32c0-4.421876-3.578125-8-8-8zm0 0"/><path d="m352.121094 252.023438h-32c-4.425782 0-8 3.578124-8 8v32c0 4.425781 3.574218 8 8 8h5.902344c4.425781 0 8-3.574219 8-8 0-1.34375-.414063-2.542969-1-3.65625 3.769531-1.910157 7.640624-3.605469 11.648437-5.09375 1.121094 3.0625 3.992187 5.261718 7.449219 5.261718 4.421875 0 8-3.574218 8-8v-20.511718c0-4.421876-3.578125-8-8-8zm0 0"/><path d="m64 316.023438h-32c-4.425781 0-8 3.578124-8 8v32c0 4.425781 3.574219 8 8 8h32c4.425781 0 8-3.574219 8-8v-32c0-4.421876-3.574219-8-8-8zm0 0"/><path d="m136 316.023438h-32c-4.425781 0-8 3.578124-8 8v32c0 4.425781 3.574219 8 8 8h32c4.425781 0 8-3.574219 8-8v-32c0-4.421876-3.574219-8-8-8zm0 0"/><path d="m208 316.023438h-32c-4.425781 0-8 3.578124-8 8v32c0 4.425781 3.574219 8 8 8h32c4.425781 0 8-3.574219 8-8v-32c0-4.421876-3.574219-8-8-8zm0 0"/><path d="m280 316.023438h-32c-4.425781 0-8 3.578124-8 8v32c0 4.425781 3.574219 8 8 8h28.472656c4.421875 0 8-3.574219 8-8 0-1.085938-.214844-2.121094-.601562-3.054688 2.464844-1.367188 4.136718-3.992188 4.136718-7.007812v-21.9375c-.007812-4.421876-3.582031-8-8.007812-8zm0 0"/><path d="m248 236.023438h32c4.425781 0 8-3.574219 8-8v-32c0-4.421876-3.574219-8-8-8h-32c-4.425781 0-8 3.578124-8 8v32c0 4.425781 3.574219 8 8 8zm0 0"/><path d="m320 236.023438h32c4.425781 0 8-3.574219 8-8v-32c0-4.421876-3.574219-8-8-8h-32c-4.425781 0-8 3.578124-8 8v32c0 4.425781 3.574219 8 8 8zm0 0"/><path d="m320 172.023438h32c4.425781 0 8-3.574219 8-8v-32c0-4.421876-3.574219-8-8-8h-32c-4.425781 0-8 3.578124-8 8v32c0 4.425781 3.574219 8 8 8zm0 0"/></g><path d="m495.839844 388c0 61.839844-50.167969 112-112 112-44.558594 0-83.046875-26-101.039063-63.679688-3.6875-7.601562-6.488281-15.679687-8.328125-24.167968-1.761718-7.761719-2.640625-15.832032-2.640625-24.160156 0-11.121094 1.609375-21.839844 4.640625-32 1.046875-3.441407 2.167969-6.71875 3.519532-10 9.121093-22.558594 25.359374-41.519532 46-54 8.078124-4.878907 16.878906-8.71875 26.160156-11.441407 10.085937-2.957031 20.640625-4.558593 31.6875-4.558593h.160156c61.753906.085937 111.839844 50.167968 111.839844 112.007812zm-174.238282 36.160156h.078126c12.320312 21.449219 35.601562 35.839844 62.167968 35.839844 39.761719 0 72-32.238281 72-72 0-39.679688-32.085937-71.839844-71.6875-72-.082031 0-.230468 0-.3125 0-13.128906 0-25.28125 3.519531-35.839844 9.601562-11.039062 6.320313-20.160156 15.4375-26.480468 26.398438-6.167969 10.558594-9.679688 22.878906-9.679688 36v.078125c-.007812 13.121094 3.585938 25.441406 9.753906 36.082031zm0 0" fill="#f6bb42"/><path d="m384 52v48h-384v-48c0-8.800781 7.128906-16 16-16h32v20c0 6.640625 5.359375 12 12 12s12-5.359375 12-12v-20h64v20c0 6.640625 5.359375 12 12 12s12-5.359375 12-12v-20h64v20c0 6.640625 5.359375 12 12 12s12-5.359375 12-12v-20h64v20c0 6.640625 5.359375 12 12 12s12-5.359375 12-12v-20h32c8.878906 0 16 7.199219 16 16zm0 0" fill="#ed5565"/><path d="m324 0c-8.824219 0-16 7.175781-16 16v40c0 8.824219 7.175781 16 16 16s16-7.175781 16-16v-40c0-8.824219-7.183594-16-16-16zm0 0" fill="#e6e9ed"/><path d="m236 0c-8.824219 0-16 7.175781-16 16v40c0 8.824219 7.175781 16 16 16s16-7.175781 16-16v-40c0-8.824219-7.183594-16-16-16zm0 0" fill="#e6e9ed"/><path d="m60 0c-8.824219 0-16 7.175781-16 16v40c0 8.824219 7.175781 16 16 16s16-7.175781 16-16v-40c0-8.824219-7.183594-16-16-16zm0 0" fill="#e6e9ed"/><path d="m148 0c-8.824219 0-16 7.175781-16 16v40c0 8.824219 7.175781 16 16 16s16-7.175781 16-16v-40c0-8.824219-7.183594-16-16-16zm0 0" fill="#e6e9ed"/><path d="m384.121094 323.976562c-4.425782 0-8-3.578124-8-8v-15.816406c0-4.425781 3.574218-8 8-8 4.421875 0 8 3.574219 8 8v15.824219c0 4.414063-3.578125 7.992187-8 7.992187zm0 0" fill="#edab37"/><path d="m384.121094 484.0625c-4.425782 0-8-3.574219-8-8v-15.824219c0-4.421875 3.574218-8 8-8 4.421875 0 8 3.578125 8 8v15.824219c0 4.425781-3.578125 8-8 8zm0 0" fill="#edab37"/><path d="m348.054688 333.640625c-2.765626 0-5.453126-1.441406-6.933594-4l-7.90625-13.695313c-2.207032-3.832031-.894532-8.722656 2.929687-10.929687 3.816407-2.207031 8.710938-.894531 10.925781 2.929687l7.90625 13.695313c2.207032 3.832031.894532 8.71875-2.929687 10.925781-1.261719.730469-2.632813 1.074219-3.992187 1.074219zm0 0" fill="#edab37"/><path d="m428.097656 472.28125c-2.769531 0-5.457031-1.441406-6.9375-4l-7.902344-13.707031c-2.210937-3.832031-.898437-8.71875 2.925782-10.925781 3.816406-2.207032 8.710937-.894532 10.929687 2.925781l7.902344 13.707031c2.207031 3.832031.894531 8.71875-2.925781 10.925781-1.257813.730469-2.632813 1.074219-3.992188 1.074219zm0 0" fill="#edab37"/><path d="m321.632812 360.046875c-1.359374 0-2.738281-.34375-3.992187-1.070313l-13.6875-7.898437c-3.832031-2.207031-5.144531-7.101563-2.929687-10.925781 2.207031-3.824219 7.105468-5.144532 10.929687-2.929688l13.6875 7.898438c3.832031 2.207031 5.144531 7.101562 2.925781 10.925781-1.476562 2.5625-4.167968 4-6.933594 4zm0 0" fill="#edab37"/><path d="m460.273438 440.097656c-1.363282 0-2.738282-.34375-3.992188-1.074218l-13.707031-7.910157c-3.832031-2.210937-5.140625-7.105469-2.925781-10.929687 2.207031-3.832032 7.113281-5.136719 10.925781-2.925782l13.707031 7.910157c3.832031 2.207031 5.144531 7.105469 2.925781 10.929687-1.480469 2.566406-4.167969 4-6.933593 4zm0 0" fill="#edab37"/><path d="m296.167969 396.128906c-4.414063 0-8-3.578125-8-7.992187 0-4.425781 3.574219-8.007813 7.992187-8.007813l15.816406-.007812h.007813c4.414063 0 8 3.574218 8 7.992187 0 4.421875-3.578125 8.007813-7.992187 8.007813zm0 0" fill="#edab37"/><path d="m472.0625 396.128906-15.824219-.007812c-4.414062 0-7.992187-3.585938-7.992187-8.007813 0-4.417969 3.585937-7.992187 8-7.992187h.011718l15.8125.007812c4.417969 0 7.992188 3.582032 7.992188 8.007813 0 4.40625-3.589844 7.992187-8 7.992187zm0 0" fill="#edab37"/><path d="m307.960938 440.105469c-2.769532 0-5.457032-1.433594-6.9375-4-2.207032-3.832031-.894532-8.722657 2.929687-10.929688l13.703125-7.910156c3.808594-2.210937 8.710938-.90625 10.929688 2.925781 2.207031 3.832032.894531 8.71875-2.929688 10.929688l-13.703125 7.910156c-1.257813.730469-2.632813 1.074219-3.992187 1.074219zm0 0" fill="#edab37"/><path d="m446.601562 360.054688c-2.769531 0-5.457031-1.4375-6.9375-4-2.207031-3.832032-.894531-8.71875 2.929688-10.925782l13.6875-7.898437c3.808594-2.199219 8.710938-.886719 10.925781 2.929687 2.207031 3.832032.898438 8.71875-2.925781 10.929688l-13.6875 7.894531c-1.257812.726563-2.632812 1.070313-3.992188 1.070313zm0 0" fill="#edab37"/><path d="m340.144531 472.289062c-1.359375 0-2.738281-.34375-3.992187-1.074218-3.832032-2.207032-5.144532-7.101563-2.929688-10.925782l7.90625-13.703124c2.207032-3.832032 7.109375-5.152344 10.925782-2.929688 3.832031 2.207031 5.144531 7.105469 2.929687 10.929688l-7.90625 13.703124c-1.476563 2.558594-4.167969 4-6.933594 4zm0 0" fill="#edab37"/><path d="m420.175781 333.648438c-1.359375 0-2.734375-.34375-3.992187-1.074219-3.832032-2.207031-5.144532-7.109375-2.925782-10.925781l7.902344-13.679688c2.207032-3.832031 7.113282-5.144531 10.929688-2.929688 3.832031 2.207032 5.140625 7.113282 2.925781 10.929688l-7.902344 13.679688c-1.480469 2.566406-4.167969 4-6.9375 4zm0 0" fill="#edab37"/><path d="m321.519531 352c6.320313-10.960938 15.441407-20.078125 26.480469-26.398438 10.558594-6.082031 22.71875-9.601562 35.839844-9.601562h.3125c39.601562.160156 71.6875 32.320312 71.6875 72 0 39.761719-32.238282 72-72 72-26.558594 0-49.839844-14.398438-62.167969-35.839844h-.078125c-6.167969-10.632812-9.761719-22.953125-9.761719-36.082031v-.078125c.007813-13.121094 3.527344-25.441406 9.6875-36zm0 0" fill="#ffce54"/><path d="m421.625 366.382812c-3.128906-3.125-8.183594-3.125-11.3125 0l-34.34375 34.335938-10.328125-10.328125c-3.128906-3.125-8.183594-3.125-11.3125 0-3.128906 3.128906-3.128906 8.183594 0 11.3125l15.984375 15.984375c1.558594 1.558594 3.609375 2.34375 5.65625 2.34375s4.09375-.785156 5.65625-2.34375l40-39.992188c3.128906-3.128906 3.128906-8.191406 0-11.3125zm0 0" fill="#656d78"/></svg>