<svg width="16" height="16" viewBox="0 0 16 16" fill="none" xmlns="http://www.w3.org/2000/svg">
<path d="M9.41506 7.99896L15.7071 1.70696C15.8946 1.51932 15.9999 1.26488 15.9998 0.999605C15.9997 0.734335 15.8942 0.479967 15.7066 0.292458C15.5189 0.10495 15.2645 -0.000337843 14.9992 -0.000244078C14.7339 -0.000150313 14.4796 0.105318 14.2921 0.292958L8.00006 6.58496L1.70806 0.292958C1.52042 0.105318 1.26592 -9.76463e-05 1.00056 -9.76463e-05C0.735192 -9.76463e-05 0.480697 0.105318 0.293056 0.292958C0.105415 0.480599 0 0.735095 0 1.00046C0 1.26582 0.105415 1.52032 0.293056 1.70796L6.58506 7.99896L0.293056 14.292C0.105415 14.4796 0 14.7341 0 14.9995C0 15.2648 0.105415 15.5193 0.293056 15.707C0.480697 15.8946 0.735192 16 1.00056 16C1.26592 16 1.52042 15.8946 1.70806 15.707L8.00006 9.41396L14.2921 15.706C14.4797 15.8936 14.7342 15.999 14.9996 15.999C15.2649 15.999 15.5194 15.8936 15.7071 15.706C15.8947 15.5183 16.0001 15.2638 16.0001 14.9985C16.0001 14.7331 15.8947 14.4786 15.7071 14.291L9.41506 7.99896Z" fill="#E20C00"/>
</svg>
