<svg width="21" height="21" viewBox="0 0 21 21" fill="none" xmlns="http://www.w3.org/2000/svg">
<path d="M19.5219 3.795C19.3335 3.58438 19.1021 3.4167 18.8433 3.30335C18.5845 3.18999 18.3044 3.1336 18.0219 3.138H3.64486L3.49986 2.064C3.47825 1.55862 3.28173 1.07645 2.94391 0.69996C2.60609 0.323466 2.14795 0.0760399 1.64786 0L0.591859 0C0.436443 0 0.287391 0.0617391 0.177495 0.171635C0.0675985 0.281532 0.00585938 0.430583 0.00585938 0.586C0.00585938 0.741417 0.0675985 0.890468 0.177495 1.00036C0.287391 1.11026 0.436443 1.172 0.591859 1.172H1.64786C1.83786 1.172 2.23986 1.572 2.32686 2.219L4.02086 14.8C4.10374 15.3697 4.39177 15.8896 4.83086 16.262C5.154 16.5448 5.54572 16.7379 5.96686 16.822C5.79306 17.135 5.70121 17.4869 5.69986 17.845C5.69986 18.4221 5.92912 18.9756 6.33719 19.3837C6.74527 19.7917 7.29875 20.021 7.87586 20.021C8.45297 20.021 9.00644 19.7917 9.41452 19.3837C9.8226 18.9756 10.0519 18.4221 10.0519 17.845C10.0519 17.5027 9.96927 17.1654 9.81086 16.862H12.9109C12.7525 17.1654 12.6698 17.5027 12.6699 17.845C12.6699 18.4221 12.8991 18.9756 13.3072 19.3837C13.7153 19.7917 14.2687 20.021 14.8459 20.021C15.423 20.021 15.9764 19.7917 16.3845 19.3837C16.7926 18.9756 17.0219 18.4221 17.0219 17.845C17.0219 17.5027 16.9393 17.1654 16.7809 16.862H18.3309C18.4863 16.862 18.6353 16.8003 18.7452 16.6904C18.8551 16.5805 18.9169 16.4314 18.9169 16.276C18.9169 16.1206 18.8551 15.9715 18.7452 15.8616C18.6353 15.7517 18.4863 15.69 18.3309 15.69H6.39986C6.10898 15.6808 5.83016 15.5717 5.61032 15.381C5.39048 15.1903 5.24306 14.9297 5.19286 14.643L5.06886 13.724H16.7519C17.3303 13.7191 17.8876 13.5062 18.3219 13.124C18.7609 12.7516 19.049 12.2317 19.1319 11.662L19.9809 5.362C20.0227 5.08392 20.0033 4.80006 19.924 4.53026C19.8447 4.26046 19.7075 4.01123 19.5219 3.8V3.795ZM8.87186 17.845C8.87384 18.0418 8.81729 18.2348 8.70939 18.3994C8.60149 18.564 8.44711 18.6928 8.26584 18.7695C8.08458 18.8462 7.88461 18.8673 7.69134 18.8301C7.49806 18.7929 7.32019 18.6992 7.18032 18.5607C7.04044 18.4222 6.94487 18.2453 6.90573 18.0524C6.8666 17.8595 6.88567 17.6594 6.96053 17.4773C7.03538 17.2953 7.16265 17.1396 7.32615 17.0301C7.48966 16.9205 7.68204 16.862 7.87886 16.862C8.14081 16.8609 8.39249 16.9638 8.57866 17.1481C8.76482 17.3324 8.87027 17.583 8.87186 17.845ZM15.8429 17.845C15.8448 18.0418 15.7883 18.2348 15.6804 18.3994C15.5725 18.564 15.4181 18.6928 15.2368 18.7695C15.0556 18.8462 14.8556 18.8673 14.6623 18.8301C14.4691 18.7929 14.2912 18.6992 14.1513 18.5607C14.0114 18.4222 13.9159 18.2453 13.8767 18.0524C13.8376 17.8595 13.8567 17.6594 13.9315 17.4773C14.0064 17.2953 14.1336 17.1396 14.2972 17.0301C14.4607 16.9205 14.653 16.862 14.8499 16.862C15.1118 16.8609 15.3635 16.9638 15.5497 17.1481C15.7358 17.3324 15.8413 17.583 15.8429 17.845ZM18.6319 4.567C18.7056 4.65366 18.7596 4.75538 18.79 4.86506C18.8204 4.97473 18.8265 5.08973 18.8079 5.202L18.4519 7.845H14.4259L14.6639 4.31H18.0189C18.1333 4.30654 18.2472 4.32769 18.3528 4.37203C18.4584 4.41637 18.5532 4.48286 18.6309 4.567H18.6319ZM10.2319 12.552L9.99086 9.017H13.1609L12.9229 12.552H10.2319ZM9.91186 7.845L9.67386 4.31H13.4739L13.2399 7.845H9.91186ZM8.48786 4.31L8.72586 7.845H4.27786L3.79986 4.31H8.48786ZM4.43586 9.017H8.80486L9.04286 12.552H4.91186L4.43586 9.017ZM16.7519 12.552H14.1089L14.3469 9.017H18.2939L17.9589 11.505C17.9087 11.7917 17.7612 12.0523 17.5414 12.243C17.3216 12.4337 17.0427 12.5428 16.7519 12.552Z" fill="white"/>
</svg>
