<svg width="14" height="14" viewBox="0 0 14 14" fill="none" xmlns="http://www.w3.org/2000/svg">
<path d="M9.16655 7.00004L13.9135 2.25204C13.9407 2.22492 13.9622 2.19273 13.9769 2.1573C13.9915 2.12187 13.9991 2.08389 13.9991 2.04554C13.9991 2.00719 13.9915 1.96921 13.9769 1.93378C13.9622 1.89835 13.9407 1.86615 13.9135 1.83904L12.1605 0.0860379C12.1334 0.0589158 12.1012 0.0374009 12.0658 0.0227222C12.0304 0.00804341 11.9924 0.000488281 11.954 0.000488281C11.9157 0.000488281 11.8777 0.00804341 11.8423 0.0227222C11.8069 0.0374009 11.7747 0.0589158 11.7475 0.0860379L6.99855 4.83304L2.25155 0.0860379C2.19581 0.0331438 2.12189 0.00365628 2.04505 0.00365628C1.96821 0.00365628 1.89429 0.0331438 1.83855 0.0860379L0.0855496 1.84004C0.0584275 1.86715 0.0369127 1.89935 0.0222339 1.93478C0.00755513 1.97021 0 2.00819 0 2.04654C0 2.08489 0.00755513 2.12287 0.0222339 2.1583C0.0369127 2.19373 0.0584275 2.22592 0.0855496 2.25304L4.83255 7.00004L0.0855496 11.748C0.0584275 11.7752 0.0369127 11.8073 0.0222339 11.8428C0.00755513 11.8782 0 11.9162 0 11.9545C0 11.9929 0.00755513 12.0309 0.0222339 12.0663C0.0369127 12.1017 0.0584275 12.1339 0.0855496 12.161L1.83955 13.915C1.86667 13.9422 1.89886 13.9637 1.93429 13.9784C1.96972 13.993 2.0077 14.0006 2.04605 14.0006C2.0844 14.0006 2.12238 13.993 2.15781 13.9784C2.19324 13.9637 2.22543 13.9422 2.25255 13.915L6.99855 9.16704L11.7465 13.915C11.7737 13.9422 11.8059 13.9637 11.8413 13.9784C11.8767 13.993 11.9147 14.0006 11.953 14.0006C11.9914 14.0006 12.0294 13.993 12.0648 13.9784C12.1002 13.9637 12.1324 13.9422 12.1595 13.915L13.9135 12.161C13.9407 12.1339 13.9622 12.1017 13.9769 12.0663C13.9915 12.0309 13.9991 11.9929 13.9991 11.9545C13.9991 11.9162 13.9915 11.8782 13.9769 11.8428C13.9622 11.8073 13.9407 11.7752 13.9135 11.748L9.16655 7.00004Z" fill="#6C0AAB"/>
</svg>
