<svg width="20" height="21" viewBox="0 0 20 21" fill="none" xmlns="http://www.w3.org/2000/svg">
<path d="M1.458 20H3.542C3.92852 19.9995 4.29906 19.8457 4.57238 19.5724C4.84569 19.2991 4.99947 18.9285 5 18.542V18.237C7.74769 19.5014 10.7532 20.1052 13.776 20H15.109C16.0425 20.0019 16.9465 19.673 17.6605 19.0716C18.3745 18.4702 18.8522 17.6353 19.009 16.715L19.942 11.298C20.0404 10.7296 20.0133 10.1465 19.8627 9.5897C19.7121 9.03285 19.4415 8.51567 19.07 8.0744C18.6984 7.63312 18.2349 7.27841 17.7118 7.03513C17.1888 6.79184 16.6189 6.66585 16.042 6.666H12.262C12.5789 5.79853 12.7387 4.88154 12.734 3.958C12.734 0.827 10.963 0 10.026 0C8.3 0 8.151 1.613 8.151 3.125C8.151 4.97 6.082 6.503 4.989 7.185C4.96277 6.8187 4.79909 6.47583 4.53075 6.22511C4.26241 5.97439 3.90924 5.83433 3.542 5.833H1.458C1.0713 5.83353 0.700612 5.98745 0.42727 6.26098C0.153928 6.53451 0.000264498 6.9053 0 7.292L0 18.542C0.000529122 18.9285 0.154309 19.2991 0.427623 19.5724C0.700936 19.8457 1.07148 19.9995 1.458 20ZM9.4 3.125C9.4 1.25 9.717 1.25 10.025 1.25C10.612 1.25 11.483 1.972 11.483 3.958C11.5078 5.00042 11.2566 6.03087 10.755 6.945C10.6922 7.03913 10.6561 7.14855 10.6506 7.26159C10.6451 7.37462 10.6703 7.48703 10.7237 7.58682C10.7771 7.68661 10.8566 7.77003 10.9537 7.82818C11.0508 7.88633 11.1618 7.91703 11.275 7.917H16.042C16.4366 7.91675 16.8265 8.0028 17.1843 8.16914C17.5422 8.33547 17.8593 8.57806 18.1135 8.87989C18.3677 9.18172 18.5528 9.53549 18.6559 9.91642C18.7589 10.2973 18.7774 10.6962 18.71 11.085L17.777 16.5C17.6701 17.1298 17.3433 17.7012 16.8548 18.1128C16.3664 18.5244 15.7478 18.7494 15.109 18.748H13.776C8.107 18.75 5.267 16.977 5 16.8V8.626C5.694 8.258 9.4 6.149 9.4 3.126V3.125ZM1.25 7.292C1.25 7.23684 1.27191 7.18393 1.31092 7.14492C1.34993 7.10591 1.40283 7.084 1.458 7.084H3.542C3.59717 7.084 3.65007 7.10591 3.68908 7.14492C3.72809 7.18393 3.75 7.23684 3.75 7.292V18.542C3.74922 18.5969 3.72706 18.6494 3.68822 18.6882C3.64938 18.7271 3.59692 18.7492 3.542 18.75H1.458C1.40283 18.75 1.34993 18.7281 1.31092 18.6891C1.27191 18.6501 1.25 18.5972 1.25 18.542V7.292Z" fill="white"/>
</svg>
