<svg width="17" height="16" viewBox="0 0 17 16" fill="none" xmlns="http://www.w3.org/2000/svg">
<path d="M16.15 14.8641L12.303 11.0171C13.3984 9.67942 13.9376 7.97186 13.809 6.24773C13.6804 4.5236 12.894 2.9149 11.6123 1.75452C10.3306 0.594133 8.65192 -0.0290972 6.92354 0.0137944C5.19516 0.056686 3.54942 0.762417 2.32689 1.98494C1.10437 3.20747 0.398635 4.85321 0.355744 6.58159C0.312852 8.30997 0.936083 9.98868 2.09646 11.2703C3.25685 12.552 4.86555 13.3385 6.58968 13.4671C8.3138 13.5956 10.0214 13.0564 11.359 11.9611L15.21 15.8001C15.3347 15.9252 15.5039 15.9958 15.6806 15.9962C15.8573 15.9965 16.0268 15.9267 16.152 15.8021C16.2772 15.6774 16.3477 15.5081 16.3481 15.3315C16.3485 15.1548 16.2787 14.9852 16.154 14.8601L16.15 14.8641ZM7.08901 12.1441C6.02099 12.1441 4.97695 11.8274 4.08893 11.234C3.2009 10.6406 2.50877 9.79727 2.10006 8.81055C1.69134 7.82383 1.58441 6.73807 1.79277 5.69057C2.00113 4.64307 2.51543 3.68089 3.27063 2.92568C4.02583 2.17048 4.98802 1.65618 6.03552 1.44782C7.08302 1.23946 8.16878 1.3464 9.1555 1.75511C10.1422 2.16382 10.9856 2.85595 11.5789 3.74398C12.1723 4.632 12.489 5.67604 12.489 6.74406C12.4869 8.17489 11.9178 9.54656 10.9065 10.5587C9.89509 11.5708 8.52383 12.1409 7.09301 12.1441H7.08901Z" fill="white"/>
</svg>
