<svg width="20" height="21" viewBox="0 0 20 21" fill="none" xmlns="http://www.w3.org/2000/svg">
<path d="M17.071 13.9289C16.0021 12.8557 14.7024 12.0403 13.271 11.5449C14.2886 10.8466 15.056 9.84104 15.4609 8.67526C15.8659 7.50948 15.8871 6.2447 15.5216 5.06597C15.156 3.88724 14.4229 2.85643 13.4294 2.12434C12.4358 1.39225 11.2341 0.997314 10 0.997314C8.76589 0.997314 7.56416 1.39225 6.57065 2.12434C5.57713 2.85643 4.84396 3.88724 4.47842 5.06597C4.11287 6.2447 4.13413 7.50948 4.53909 8.67526C4.94404 9.84104 5.71144 10.8466 6.729 11.5449C4.76464 12.2274 3.06141 13.5043 1.85563 15.1986C0.649843 16.8928 0.00130474 18.9204 0 20.9999H1.562C1.562 18.7622 2.45095 16.616 4.03329 15.0337C5.61562 13.4514 7.76174 12.5624 9.9995 12.5624C12.2373 12.5624 14.3834 13.4514 15.9657 15.0337C17.5481 16.616 18.437 18.7622 18.437 20.9999H20C20.0035 19.6862 19.7465 18.3848 19.2437 17.171C18.741 15.9573 18.0025 14.8553 17.071 13.9289ZM10 10.9999C9.16556 10.9999 8.34986 10.7525 7.65605 10.2889C6.96224 9.8253 6.42148 9.16638 6.10215 8.39546C5.78283 7.62454 5.69928 6.77624 5.86207 5.95783C6.02486 5.13943 6.42668 4.38767 7.01672 3.79764C7.60675 3.2076 8.35851 2.80578 9.17691 2.64299C9.99532 2.48019 10.8436 2.56375 11.6145 2.88307C12.3855 3.2024 13.0444 3.74316 13.508 4.43697C13.9716 5.13078 14.219 5.94648 14.219 6.78092C14.2177 7.89946 13.7728 8.97181 12.9818 9.76274C12.1909 10.5537 11.1185 10.9986 10 10.9999Z" fill="white"/>
</svg>
